<svg width="25" height="25" viewBox="0 0 25 25" fill="none" xmlns="http://www.w3.org/2000/svg">
<path d="M4.16663 13.5417C6.02401 13.7624 7.75313 14.6016 9.07575 15.9242C10.3984 17.2468 11.2376 18.976 11.4583 20.8334C12.379 20.3025 13.1492 19.5457 13.696 18.6343C14.2428 17.723 14.5482 16.6872 14.5833 15.625C16.3324 15.0097 17.8597 13.8896 18.9722 12.4063C20.0847 10.923 20.7323 9.14308 20.8333 7.29169C20.8333 6.46289 20.5041 5.66803 19.918 5.08198C19.3319 4.49593 18.5371 4.16669 17.7083 4.16669C15.8569 4.26763 14.077 4.9153 12.5937 6.02778C11.1104 7.14027 9.99026 8.66761 9.37496 10.4167C8.31273 10.4518 7.277 10.7571 6.36565 11.3039C5.4543 11.8508 4.69745 12.6209 4.16663 13.5417" stroke="black" stroke-linecap="round" stroke-linejoin="round"/>
<path d="M7.29164 14.5833C6.2075 15.1954 5.33086 16.1173 4.77409 17.2308C4.21732 18.3443 4.0058 19.5988 4.16664 20.8333C5.40118 20.9942 6.65562 20.7826 7.76916 20.2259C8.8827 19.6691 9.80459 18.7924 10.4166 17.7083" stroke="black" stroke-linecap="round" stroke-linejoin="round"/>
<path d="M15.625 10.4166C16.2003 10.4166 16.6667 9.95028 16.6667 9.37498C16.6667 8.79968 16.2003 8.33331 15.625 8.33331C15.0497 8.33331 14.5834 8.79968 14.5834 9.37498C14.5834 9.95028 15.0497 10.4166 15.625 10.4166Z" stroke="black" stroke-linecap="round" stroke-linejoin="round"/>
</svg>
