<svg width="26" height="25" viewBox="0 0 26 25" fill="none" xmlns="http://www.w3.org/2000/svg">
<path d="M12.5 25C14.2271 25 15.8436 24.6762 17.3494 24.0285C18.8553 23.3808 20.1857 22.4795 21.3407 21.3245C22.4957 20.1695 23.3971 18.8391 24.0447 17.3332C24.6924 15.8274 25.0162 14.2163 25.0162 12.5C25.0162 10.7837 24.6924 9.1726 24.0447 7.66677C23.3971 6.16095 22.4957 4.83053 21.3407 3.67553C20.1857 2.52052 18.8553 1.61918 17.3494 0.971508C15.8436 0.323837 14.2271 0 12.5 0C10.7837 0 9.16992 0.323837 7.65868 0.971508C6.14746 1.61918 4.81974 2.52052 3.67552 3.67553C2.5313 4.83053 1.63266 6.16095 0.979599 7.66677C0.326533 9.1726 0 10.7837 0 12.5C0 14.2163 0.326533 15.8274 0.979599 17.3332C1.63266 18.8391 2.5313 20.1695 3.67552 21.3245C4.81974 22.4795 6.14746 23.3808 7.65868 24.0285C9.16992 24.6762 10.7837 25 12.5 25ZM12.5 23.8828C10.9348 23.8828 9.46408 23.5886 8.08777 23.0003C6.71147 22.412 5.50249 21.597 4.46083 20.5554C3.41916 19.5137 2.60417 18.302 2.01586 16.9203C1.42756 15.5387 1.13342 14.0652 1.13342 12.5C1.13342 10.9348 1.42756 9.46135 2.01586 8.07965C2.60417 6.69796 3.41916 5.48628 4.46083 4.44462C5.50249 3.40296 6.71147 2.58798 8.08777 1.99969C9.46408 1.41137 10.9348 1.11722 12.5 1.11722C14.076 1.11722 15.5522 1.41137 16.9284 1.99969C18.3047 2.58798 19.5137 3.40296 20.5554 4.44462C21.5971 5.48628 22.4121 6.69796 23.0004 8.07965C23.5887 9.46135 23.8828 10.9348 23.8828 12.5C23.8828 14.0652 23.5887 15.5387 23.0004 16.9203C22.4121 18.302 21.5971 19.5137 20.5554 20.5554C19.5137 21.597 18.3047 22.412 16.9284 23.0003C15.5522 23.5886 14.076 23.8828 12.5 23.8828ZM7.99871 17.6004C8.16064 17.6004 8.30637 17.5356 8.43589 17.4061L12.5162 13.3258L16.5965 17.4061C16.7261 17.5356 16.8772 17.6004 17.0499 17.6004C17.201 17.6004 17.3332 17.5464 17.4466 17.4385C17.5599 17.3305 17.6166 17.201 17.6166 17.0499C17.6166 16.888 17.5572 16.7422 17.4385 16.6127L13.3258 12.5162L17.4385 8.4035C17.568 8.27395 17.6328 8.13362 17.6328 7.98249C17.6328 7.82058 17.5761 7.68836 17.4628 7.58583C17.3494 7.48327 17.2118 7.43199 17.0499 7.43199C16.888 7.43199 16.7422 7.49676 16.6127 7.62628L12.5162 11.7066L8.41971 7.62628C8.30098 7.49676 8.16064 7.43199 7.99871 7.43199C7.83679 7.43199 7.69916 7.48597 7.58582 7.59392C7.47248 7.70187 7.41581 7.83139 7.41581 7.98249C7.41581 8.14443 7.48058 8.28477 7.61013 8.4035L11.7066 12.5162L7.61013 16.6289C7.48058 16.7476 7.41581 16.888 7.41581 17.0499C7.41581 17.201 7.47248 17.3305 7.58582 17.4385C7.69916 17.5464 7.83679 17.6004 7.99871 17.6004Z" fill="black"/>
</svg>
