<svg width="25" height="25" viewBox="0 0 25 25" fill="none" xmlns="http://www.w3.org/2000/svg">
<path d="M9.89587 11.4583H9.90587" stroke="black" stroke-width="2" stroke-linecap="round" stroke-linejoin="round"/>
<path d="M15.1041 11.4583H15.1141" stroke="black" stroke-width="2" stroke-linecap="round" stroke-linejoin="round"/>
<path d="M9.89587 15.625C10.2353 15.9715 10.6405 16.2467 11.0877 16.4346C11.5348 16.6225 12.015 16.7193 12.5 16.7193C12.9851 16.7193 13.4652 16.6225 13.9124 16.4346C14.3596 16.2467 14.7648 15.9715 15.1042 15.625" stroke="black" stroke-linecap="round" stroke-linejoin="round"/>
<path d="M7.29163 5.20833H8.33329V3.125H16.6666V5.20833H17.7083C18.5371 5.20833 19.3319 5.53757 19.918 6.12362C20.5041 6.70968 20.8333 7.50453 20.8333 8.33333V17.7083C20.8333 18.5371 20.5041 19.332 19.918 19.918C19.3319 20.5041 18.5371 20.8333 17.7083 20.8333V21.875H7.29163V20.8333C6.46282 20.8333 5.66797 20.5041 5.08192 19.918C4.49587 19.332 4.16663 18.5371 4.16663 17.7083V8.33333C4.16663 7.50453 4.49587 6.70968 5.08192 6.12362C5.66797 5.53757 6.46282 5.20833 7.29163 5.20833" stroke="black" stroke-linecap="round" stroke-linejoin="round"/>
</svg>
