<svg width="31" height="25" viewBox="0 0 31 25" fill="none" xmlns="http://www.w3.org/2000/svg">
<path d="M7.37498 0.214272L0.232148 7.35715C0.0773826 7.51192 0 7.69048 0 7.89285C0 8.08333 0.0595234 8.2381 0.178571 8.35716C0.297623 8.47618 0.452381 8.5357 0.642845 8.5357C0.833333 8.5357 1 8.45833 1.14285 8.30358L4.5893 4.82143L7.28571 2.00002L7.21429 5.01786V24.3393C7.21429 24.5298 7.27381 24.6875 7.39287 24.8125C7.51192 24.9375 7.66668 25 7.85714 25C8.0476 25 8.20236 24.9375 8.32141 24.8125C8.44047 24.6875 8.49999 24.5298 8.49999 24.3393V5.01786L8.44642 2.00002L11.125 4.82143L14.5714 8.30358C14.7143 8.45833 14.8809 8.5357 15.0714 8.5357C15.2619 8.5357 15.4167 8.47618 15.5357 8.35716C15.6548 8.2381 15.7143 8.08333 15.7143 7.89285C15.7143 7.69048 15.6369 7.51192 15.4821 7.35715L8.3393 0.214272C8.20832 0.0714238 8.05058 0 7.86607 0C7.68155 0 7.51786 0.0714238 7.37498 0.214272ZM23.1607 24.7857L30.3036 17.625C30.4583 17.4702 30.5357 17.2976 30.5357 17.1072C30.5357 16.9167 30.4732 16.7619 30.3482 16.6429C30.2232 16.5238 30.0714 16.4643 29.8928 16.4643C29.7024 16.4643 29.5357 16.5417 29.3928 16.6964L25.9464 20.1607L23.25 23L23.3214 19.9822V0.642854C23.3214 0.464288 23.2619 0.312504 23.1429 0.187503C23.0238 0.0625016 22.869 0 22.6785 0C22.4881 0 22.3333 0.0625016 22.2143 0.187503C22.0952 0.312504 22.0357 0.464288 22.0357 0.642854V19.9822L22.0893 23L19.4286 20.1607L15.9643 16.6964C15.8214 16.5417 15.6548 16.4643 15.4643 16.4643C15.2738 16.4643 15.119 16.5238 15 16.6429C14.8809 16.7619 14.8214 16.9167 14.8214 17.1072C14.8214 17.2976 14.8988 17.4702 15.0536 17.625L22.1964 24.7857C22.3274 24.9286 22.4851 25 22.6696 25C22.8542 25 23.0179 24.9286 23.1607 24.7857Z" fill="black"/>
</svg>
