<svg width="15" height="25" viewBox="0 0 15 25" fill="none" xmlns="http://www.w3.org/2000/svg">
<path d="M14.1827 12.5C14.1827 12.3798 14.1594 12.273 14.1126 12.1795C14.0659 12.086 14.0025 11.9992 13.9223 11.9191L1.28211 0.220351C1.13521 0.0734509 0.954919 -1.15641e-06 0.74123 -1.17509e-06C0.540916 -1.19261e-06 0.367308 0.0667732 0.22041 0.20032C0.0735104 0.333867 6.1269e-05 0.507476 6.12503e-05 0.721152C6.12328e-05 0.921471 0.0735104 1.09508 0.22041 1.24198L12.3799 12.5L0.220408 23.758C0.0735084 23.9049 5.92084e-05 24.0785 5.91909e-05 24.2788C5.91722e-05 24.4925 0.0735083 24.6661 0.220408 24.7997C0.367306 24.9332 0.540914 25 0.741228 25C0.954917 25 1.13521 24.9265 1.28211 24.7796L13.9223 13.0809C14.0959 12.9207 14.1827 12.727 14.1827 12.5Z" fill="black"/>
</svg>
