<svg width="26" height="25" viewBox="0 0 26 25" fill="none" xmlns="http://www.w3.org/2000/svg">
<path d="M12.5 25C14.2271 25 15.8436 24.6762 17.3494 24.0285C18.8552 23.3808 20.1857 22.4795 21.3407 21.3245C22.4957 20.1695 23.397 18.8391 24.0447 17.3332C24.6924 15.8274 25.0162 14.2163 25.0162 12.5C25.0162 10.7837 24.6924 9.1726 24.0447 7.66677C23.397 6.16095 22.4957 4.83053 21.3407 3.67553C20.1857 2.52052 18.8552 1.61918 17.3494 0.971508C15.8436 0.323837 14.2271 0 12.5 0C10.7837 0 9.1699 0.323837 7.65866 0.971508C6.14745 1.61918 4.81973 2.52052 3.67551 3.67553C2.53129 4.83053 1.63265 6.16095 0.979598 7.66677C0.326533 9.1726 0 10.7837 0 12.5C0 14.2163 0.326533 15.8274 0.979598 17.3332C1.63265 18.8391 2.53129 20.1695 3.67551 21.3245C4.81973 22.4795 6.14745 23.3808 7.65866 24.0285C9.1699 24.6762 10.7837 25 12.5 25ZM12.5 23.8828C10.9348 23.8828 9.46406 23.5886 8.08776 23.0003C6.71146 22.412 5.50248 21.597 4.46082 20.5554C3.41916 19.5137 2.60417 18.302 2.01585 16.9203C1.42756 15.5387 1.13342 14.0652 1.13342 12.5C1.13342 10.9348 1.42756 9.46135 2.01585 8.07965C2.60417 6.69796 3.41916 5.48628 4.46082 4.44462C5.50248 3.40296 6.71146 2.58798 8.08776 1.99969C9.46406 1.41137 10.9348 1.11722 12.5 1.11722C14.076 1.11722 15.5521 1.41137 16.9284 1.99969C18.3047 2.58798 19.5137 3.40296 20.5554 4.44462C21.597 5.48628 22.412 6.69796 23.0003 8.07965C23.5886 9.46135 23.8828 10.9348 23.8828 12.5C23.8828 14.0652 23.5886 15.5387 23.0003 16.9203C22.412 18.302 21.597 19.5137 20.5554 20.5554C19.5137 21.597 18.3047 22.412 16.9284 23.0003C15.5521 23.5886 14.076 23.8828 12.5 23.8828ZM11.1399 18.5233C11.345 18.5233 11.5285 18.4208 11.6904 18.2157L18.2157 8.06347C18.2481 8.00949 18.2804 7.94742 18.3128 7.87727C18.3452 7.80711 18.3614 7.73424 18.3614 7.65868C18.3614 7.50756 18.302 7.38341 18.1833 7.28625C18.0645 7.18912 17.935 7.14055 17.7947 7.14055C17.622 7.14055 17.4601 7.23769 17.3089 7.43199L11.1237 17.1308L7.75582 13.1638C7.68026 13.0667 7.602 12.9992 7.52105 12.9615C7.44009 12.9237 7.35103 12.9048 7.25387 12.9048C7.11356 12.9048 6.98943 12.9561 6.88148 13.0586C6.77353 13.1612 6.71955 13.288 6.71955 13.4391C6.71955 13.5794 6.77892 13.7306 6.89766 13.8925L10.5732 18.2157C10.6595 18.3236 10.7459 18.4019 10.8323 18.4504C10.9186 18.499 11.0212 18.5233 11.1399 18.5233Z" fill="black"/>
</svg>
