<svg width="25" height="25" viewBox="0 0 25 25" fill="none" xmlns="http://www.w3.org/2000/svg">
<path d="M11.2448 7.65294L10.299 8.59871C11.3394 8.54616 12.2247 8.65124 12.9551 8.91395C13.6854 9.17667 14.3238 9.58125 14.8703 10.1277C15.6374 10.8948 16.1444 11.7486 16.3914 12.6891C16.6383 13.6297 16.6305 14.5702 16.3678 15.5107C16.105 16.4512 15.5849 17.3103 14.8072 18.0879L10.8035 22.0917C10.0153 22.8693 9.15361 23.3895 8.21835 23.6522C7.28309 23.9149 6.34521 23.9228 5.4047 23.6759C4.46419 23.4289 3.61562 22.9271 2.85901 22.1705C2.09188 21.3929 1.58221 20.5364 1.33 19.6012C1.07781 18.6659 1.08307 17.728 1.34578 16.7875C1.6085 15.847 2.12866 14.9879 2.90628 14.2103L6.27955 10.837C6.19546 10.6584 6.14292 10.4403 6.12191 10.1829C6.10089 9.92541 6.1324 9.66532 6.21647 9.40261L2.07084 13.564C1.15661 14.4677 0.544491 15.4713 0.234489 16.5747C-0.0755137 17.6781 -0.0781405 18.7841 0.226608 19.8928C0.531362 21.0014 1.14611 22.0181 2.07084 22.9429C2.9956 23.8676 4.01231 24.4798 5.12097 24.7793C6.22963 25.0787 7.33565 25.0735 8.43904 24.7635C9.54244 24.4535 10.546 23.8519 11.4497 22.9586L15.6584 18.7342C16.5621 17.8305 17.169 16.8269 17.479 15.7235C17.789 14.6201 17.7917 13.5141 17.4869 12.4054C17.1821 11.2968 16.5726 10.2801 15.6584 9.35531C15.1225 8.81939 14.5104 8.4043 13.822 8.11006C13.1337 7.81582 12.2747 7.66344 11.2448 7.65294ZM13.7196 17.3471L14.6653 16.4013C13.625 16.4643 12.7423 16.3619 12.0172 16.0939C11.2921 15.826 10.6564 15.4187 10.1099 14.8723C9.34277 14.1052 8.83311 13.2514 8.58092 12.3109C8.32871 11.3703 8.33396 10.4298 8.59667 9.48929C8.85938 8.54877 9.37956 7.69496 10.1572 6.92785L14.1767 2.90831C14.9543 2.14118 15.8134 1.62626 16.7539 1.36354C17.6944 1.10083 18.6323 1.09295 19.5676 1.33991C20.5029 1.58687 21.3488 2.08866 22.1054 2.84527C22.883 3.61238 23.3953 4.4662 23.6423 5.40674C23.8892 6.34725 23.8814 7.28514 23.6186 8.2204C23.3559 9.15566 22.8358 10.0121 22.0581 10.7897L18.7006 14.163C18.7742 14.3416 18.8215 14.5597 18.8425 14.8171C18.8635 15.0746 18.8372 15.3347 18.7637 15.5974L22.9093 11.4518C23.813 10.548 24.4199 9.54447 24.7299 8.44108C25.0399 7.33767 25.0452 6.22901 24.7457 5.1151C24.4462 4.00121 23.8341 2.98714 22.9093 2.07288C21.9846 1.13762 20.9652 0.520244 19.8513 0.22075C18.7374 -0.0787436 17.6288 -0.0734931 16.5254 0.236503C15.422 0.546521 14.4237 1.1534 13.5304 2.05713L9.32176 6.2658C8.40751 7.16953 7.79801 8.17311 7.49326 9.27651C7.18852 10.3799 7.18589 11.4886 7.48539 12.6025C7.78488 13.7164 8.397 14.7304 9.32176 15.6447C9.84719 16.1806 10.4541 16.5957 11.1424 16.8899C11.8307 17.1842 12.6897 17.3366 13.7196 17.3471Z" fill="black"/>
</svg>
