<?xml version="1.0" encoding="UTF-8"?>
<!--Generator: Apple Native CoreSVG 175-->
<!DOCTYPE svg
PUBLIC "-//W3C//DTD SVG 1.1//EN"
       "http://www.w3.org/Graphics/SVG/1.1/DTD/svg11.dtd">
<svg version="1.1" xmlns="http://www.w3.org/2000/svg" xmlns:xlink="http://www.w3.org/1999/xlink" width="3300" height="2200">
 <!--glyph: "uni100BF6.medium", point size: 100.0, font version: "17.1d1e1", template writer version: "65.1"-->
 <g id="Notes">
  <rect height="2200" id="artboard" style="fill:white;opacity:1" width="3300" x="0" y="0"/>
  <line style="fill:none;stroke:black;opacity:1;stroke-width:0.5;" x1="263" x2="3036" y1="292" y2="292"/>
  <text style="stroke:none;fill:black;font-family:sans-serif;font-size:13;font-weight:bold;" transform="matrix(1 0 0 1 263 322)">Weight/Scale Variations</text>
  <text style="stroke:none;fill:black;font-family:sans-serif;font-size:13;text-anchor:middle;" transform="matrix(1 0 0 1 559.711 322)">Ultralight</text>
  <text style="stroke:none;fill:black;font-family:sans-serif;font-size:13;text-anchor:middle;" transform="matrix(1 0 0 1 856.422 322)">Thin</text>
  <text style="stroke:none;fill:black;font-family:sans-serif;font-size:13;text-anchor:middle;" transform="matrix(1 0 0 1 1153.13 322)">Light</text>
  <text style="stroke:none;fill:black;font-family:sans-serif;font-size:13;text-anchor:middle;" transform="matrix(1 0 0 1 1449.84 322)">Regular</text>
  <text style="stroke:none;fill:black;font-family:sans-serif;font-size:13;text-anchor:middle;" transform="matrix(1 0 0 1 1746.56 322)">Medium</text>
  <text style="stroke:none;fill:black;font-family:sans-serif;font-size:13;text-anchor:middle;" transform="matrix(1 0 0 1 2043.27 322)">Semibold</text>
  <text style="stroke:none;fill:black;font-family:sans-serif;font-size:13;text-anchor:middle;" transform="matrix(1 0 0 1 2339.98 322)">Bold</text>
  <text style="stroke:none;fill:black;font-family:sans-serif;font-size:13;text-anchor:middle;" transform="matrix(1 0 0 1 2636.69 322)">Heavy</text>
  <text style="stroke:none;fill:black;font-family:sans-serif;font-size:13;text-anchor:middle;" transform="matrix(1 0 0 1 2933.4 322)">Black</text>
  <line style="fill:none;stroke:black;opacity:1;stroke-width:0.5;" x1="263" x2="3036" y1="1903" y2="1903"/>
  <g transform="matrix(1 0 0 1 263 1933)">
   <path d="M9.24805 0.830078Q10.8691 0.830078 12.2949 0.214844Q13.7207-0.400391 14.8096-1.49414Q15.8984-2.58789 16.5186-4.01367Q17.1387-5.43945 17.1387-7.05078Q17.1387-8.66211 16.5186-10.0879Q15.8984-11.5137 14.8047-12.6074Q13.7109-13.7012 12.2852-14.3164Q10.8594-14.9316 9.23828-14.9316Q7.62695-14.9316 6.20117-14.3164Q4.77539-13.7012 3.69141-12.6074Q2.60742-11.5137 1.9873-10.0879Q1.36719-8.66211 1.36719-7.05078Q1.36719-5.43945 1.9873-4.01367Q2.60742-2.58789 3.69629-1.49414Q4.78516-0.400391 6.21094 0.214844Q7.63672 0.830078 9.24805 0.830078ZM9.24805-0.654297Q7.91992-0.654297 6.7627-1.14746Q5.60547-1.64062 4.73145-2.51953Q3.85742-3.39844 3.36426-4.56055Q2.87109-5.72266 2.87109-7.05078Q2.87109-8.37891 3.35938-9.54102Q3.84766-10.7031 4.72168-11.582Q5.5957-12.4609 6.75293-12.9541Q7.91016-13.4473 9.23828-13.4473Q10.5762-13.4473 11.7334-12.9541Q12.8906-12.4609 13.7695-11.582Q14.6484-10.7031 15.1465-9.54102Q15.6445-8.37891 15.6445-7.05078Q15.6445-5.72266 15.1514-4.56055Q14.6582-3.39844 13.7842-2.51953Q12.9102-1.64062 11.748-1.14746Q10.5859-0.654297 9.24805-0.654297ZM5.6543-7.05078Q5.6543-6.72852 5.85938-6.52832Q6.06445-6.32812 6.40625-6.32812L8.51562-6.32812L8.51562-4.20898Q8.51562-3.88672 8.71094-3.67676Q8.90625-3.4668 9.23828-3.4668Q9.56055-3.4668 9.77051-3.67676Q9.98047-3.88672 9.98047-4.20898L9.98047-6.32812L12.0898-6.32812Q12.4219-6.32812 12.627-6.52832Q12.832-6.72852 12.832-7.05078Q12.832-7.38281 12.627-7.58789Q12.4219-7.79297 12.0898-7.79297L9.98047-7.79297L9.98047-9.90234Q9.98047-10.2344 9.77051-10.4443Q9.56055-10.6543 9.23828-10.6543Q8.90625-10.6543 8.71094-10.4443Q8.51562-10.2344 8.51562-9.90234L8.51562-7.79297L6.40625-7.79297Q6.06445-7.79297 5.85938-7.58789Q5.6543-7.38281 5.6543-7.05078Z"/>
  </g>
  <g transform="matrix(1 0 0 1 281.867 1933)">
   <path d="M11.709 2.91016Q13.75 2.91016 15.5518 2.12891Q17.3535 1.34766 18.7305-0.0292969Q20.1074-1.40625 20.8887-3.20801Q21.6699-5.00977 21.6699-7.05078Q21.6699-9.0918 20.8887-10.8936Q20.1074-12.6953 18.7305-14.0723Q17.3535-15.4492 15.5469-16.2305Q13.7402-17.0117 11.6992-17.0117Q9.6582-17.0117 7.85645-16.2305Q6.05469-15.4492 4.68262-14.0723Q3.31055-12.6953 2.5293-10.8936Q1.74805-9.0918 1.74805-7.05078Q1.74805-5.00977 2.5293-3.20801Q3.31055-1.40625 4.6875-0.0292969Q6.06445 1.34766 7.86621 2.12891Q9.66797 2.91016 11.709 2.91016ZM11.709 1.25Q9.98047 1.25 8.47656 0.605469Q6.97266-0.0390625 5.83496-1.17676Q4.69727-2.31445 4.05762-3.81836Q3.41797-5.32227 3.41797-7.05078Q3.41797-8.7793 4.05762-10.2832Q4.69727-11.7871 5.83008-12.9297Q6.96289-14.0723 8.4668-14.7119Q9.9707-15.3516 11.6992-15.3516Q13.4277-15.3516 14.9316-14.7119Q16.4355-14.0723 17.5781-12.9297Q18.7207-11.7871 19.3652-10.2832Q20.0098-8.7793 20.0098-7.05078Q20.0098-5.32227 19.3701-3.81836Q18.7305-2.31445 17.5928-1.17676Q16.4551-0.0390625 14.9463 0.605469Q13.4375 1.25 11.709 1.25ZM7.17773-7.05078Q7.17773-6.69922 7.41211-6.47461Q7.64648-6.25 8.01758-6.25L10.8887-6.25L10.8887-3.36914Q10.8887-2.99805 11.1133-2.76855Q11.3379-2.53906 11.6895-2.53906Q12.0605-2.53906 12.29-2.76855Q12.5195-2.99805 12.5195-3.36914L12.5195-6.25L15.4004-6.25Q15.7715-6.25 16.001-6.47461Q16.2305-6.69922 16.2305-7.05078Q16.2305-7.42188 16.001-7.65137Q15.7715-7.88086 15.4004-7.88086L12.5195-7.88086L12.5195-10.752Q12.5195-11.1328 12.29-11.3623Q12.0605-11.5918 11.6895-11.5918Q11.3379-11.5918 11.1133-11.3574Q10.8887-11.123 10.8887-10.752L10.8887-7.88086L8.01758-7.88086Q7.63672-7.88086 7.40723-7.65137Q7.17773-7.42188 7.17773-7.05078Z"/>
  </g>
  <g transform="matrix(1 0 0 1 305.646 1933)">
   <path d="M14.9707 5.66406Q17.0605 5.66406 18.96 5.01465Q20.8594 4.36523 22.4512 3.19336Q24.043 2.02148 25.2197 0.429688Q26.3965-1.16211 27.0459-3.06641Q27.6953-4.9707 27.6953-7.05078Q27.6953-9.14062 27.0459-11.04Q26.3965-12.9395 25.2197-14.5312Q24.043-16.123 22.4512-17.2998Q20.8594-18.4766 18.9551-19.126Q17.0508-19.7754 14.9609-19.7754Q12.8711-19.7754 10.9717-19.126Q9.07227-18.4766 7.48535-17.2998Q5.89844-16.123 4.72168-14.5312Q3.54492-12.9395 2.90039-11.04Q2.25586-9.14062 2.25586-7.05078Q2.25586-4.9707 2.90527-3.06641Q3.55469-1.16211 4.72656 0.429688Q5.89844 2.02148 7.49023 3.19336Q9.08203 4.36523 10.9814 5.01465Q12.8809 5.66406 14.9707 5.66406ZM14.9707 3.84766Q13.1641 3.84766 11.5283 3.2959Q9.89258 2.74414 8.53516 1.74805Q7.17773 0.751953 6.17676-0.610352Q5.17578-1.97266 4.62891-3.6084Q4.08203-5.24414 4.08203-7.05078Q4.08203-8.86719 4.62891-10.5029Q5.17578-12.1387 6.17188-13.501Q7.16797-14.8633 8.52539-15.8594Q9.88281-16.8555 11.5186-17.4023Q13.1543-17.9492 14.9609-17.9492Q16.7773-17.9492 18.4131-17.4023Q20.0488-16.8555 21.4111-15.8594Q22.7734-14.8633 23.7695-13.501Q24.7656-12.1387 25.3174-10.5029Q25.8691-8.86719 25.8691-7.05078Q25.8789-5.24414 25.332-3.6084Q24.7852-1.97266 23.7842-0.610352Q22.7832 0.751953 21.4209 1.74805Q20.0586 2.74414 18.4229 3.2959Q16.7871 3.84766 14.9707 3.84766ZM9.19922-7.05078Q9.19922-6.66992 9.45801-6.4209Q9.7168-6.17188 10.1172-6.17188L14.0625-6.17188L14.0625-2.2168Q14.0625-1.81641 14.3115-1.55762Q14.5605-1.29883 14.9512-1.29883Q15.3516-1.29883 15.6104-1.55273Q15.8691-1.80664 15.8691-2.2168L15.8691-6.17188L19.8242-6.17188Q20.2246-6.17188 20.4785-6.4209Q20.7324-6.66992 20.7324-7.05078Q20.7324-7.46094 20.4785-7.71484Q20.2246-7.96875 19.8242-7.96875L15.8691-7.96875L15.8691-11.9141Q15.8691-12.3242 15.6104-12.583Q15.3516-12.8418 14.9512-12.8418Q14.5605-12.8418 14.3115-12.583Q14.0625-12.3242 14.0625-11.9141L14.0625-7.96875L10.1172-7.96875Q9.70703-7.96875 9.45312-7.71484Q9.19922-7.46094 9.19922-7.05078Z"/>
  </g>
  <text style="stroke:none;fill:black;font-family:sans-serif;font-size:13;font-weight:bold;" transform="matrix(1 0 0 1 263 1953)">Design Variations</text>
  <text style="stroke:none;fill:black;font-family:sans-serif;font-size:13;" transform="matrix(1 0 0 1 263 1971)">Symbols are supported in up to nine weights and three scales.</text>
  <text style="stroke:none;fill:black;font-family:sans-serif;font-size:13;" transform="matrix(1 0 0 1 263 1989)">For optimal layout with text and other symbols, vertically align</text>
  <text style="stroke:none;fill:black;font-family:sans-serif;font-size:13;" transform="matrix(1 0 0 1 263 2007)">symbols with the adjacent text.</text>
  <line style="fill:none;stroke:#00AEEF;stroke-width:0.5;opacity:1.0;" x1="776" x2="776" y1="1919" y2="1933"/>
  <g transform="matrix(1 0 0 1 776 1933)">
   <path d="M3.31055 0.15625Q3.70117 0.15625 3.91602-0.00976562Q4.13086-0.175781 4.26758-0.585938L5.52734-4.0332L11.2891-4.0332L12.5488-0.585938Q12.6855-0.175781 12.9004-0.00976562Q13.1152 0.15625 13.4961 0.15625Q13.8867 0.15625 14.1162-0.0585938Q14.3457-0.273438 14.3457-0.644531Q14.3457-0.869141 14.2383-1.17188L9.6582-13.3691Q9.48242-13.8184 9.17969-14.043Q8.87695-14.2676 8.4082-14.2676Q7.5-14.2676 7.17773-13.3789L2.59766-1.16211Q2.49023-0.859375 2.49023-0.634766Q2.49023-0.263672 2.70996-0.0537109Q2.92969 0.15625 3.31055 0.15625ZM6.00586-5.51758L8.37891-12.0898L8.42773-12.0898L10.8008-5.51758Z"/>
  </g>
  <line style="fill:none;stroke:#00AEEF;stroke-width:0.5;opacity:1.0;" x1="793.197" x2="793.197" y1="1919" y2="1933"/>
  <text style="stroke:none;fill:black;font-family:sans-serif;font-size:13;font-weight:bold;" transform="matrix(1 0 0 1 776 1953)">Margins</text>
  <text style="stroke:none;fill:black;font-family:sans-serif;font-size:13;" transform="matrix(1 0 0 1 776 1971)">Leading and trailing margins on the left and right side of each symbol</text>
  <text style="stroke:none;fill:black;font-family:sans-serif;font-size:13;" transform="matrix(1 0 0 1 776 1989)">can be adjusted by modifying the x-location of the margin guidelines.</text>
  <text style="stroke:none;fill:black;font-family:sans-serif;font-size:13;" transform="matrix(1 0 0 1 776 2007)">Modifications are automatically applied proportionally to all</text>
  <text style="stroke:none;fill:black;font-family:sans-serif;font-size:13;" transform="matrix(1 0 0 1 776 2025)">scales and weights.</text>
  <g transform="matrix(1 0 0 1 1289 1933)">
   <path d="M2.8418 1.86523L4.54102 3.57422Q5.18555 4.22852 5.90332 4.17969Q6.62109 4.13086 7.31445 3.35938L18.0078-8.42773L17.041-9.4043L6.42578 2.27539Q6.16211 2.57812 5.89355 2.61719Q5.625 2.65625 5.27344 2.30469L4.10156 1.14258Q3.75 0.791016 3.79395 0.522461Q3.83789 0.253906 4.14062-0.0195312L15.6152-10.8203L14.6387-11.7871L3.04688-0.898438Q2.30469-0.214844 2.25098 0.498047Q2.19727 1.21094 2.8418 1.86523ZM9.25781-16.3281Q8.94531-16.0254 8.90625-15.6348Q8.86719-15.2441 9.04297-14.9512Q9.21875-14.6777 9.55566-14.541Q9.89258-14.4043 10.3809-14.5215Q11.4746-14.7754 12.5977-14.7314Q13.7207-14.6875 14.7949-13.9844L14.209-12.5293Q13.9551-11.9043 14.0674-11.4404Q14.1797-10.9766 14.5801-10.5664L16.875-8.25195Q17.2363-7.88086 17.5781-7.82227Q17.9199-7.76367 18.3398-7.8418L19.4043-8.03711L20.0684-7.36328L20.0293-6.80664Q20-6.43555 20.1221-6.12305Q20.2441-5.81055 20.6055-5.44922L21.3672-4.70703Q21.7285-4.3457 22.1533-4.33105Q22.5781-4.31641 22.9297-4.66797L25.8398-7.58789Q26.1914-7.93945 26.1816-8.35449Q26.1719-8.76953 25.8105-9.13086L25.0391-9.89258Q24.6875-10.2539 24.3799-10.3857Q24.0723-10.5176 23.7109-10.4883L23.1348-10.4395L22.4902-11.0742L22.7344-12.1973Q22.832-12.6172 22.6953-12.9834Q22.5586-13.3496 22.1191-13.7891L19.9219-15.9766Q18.6719-17.2168 17.2607-17.8369Q15.8496-18.457 14.4189-18.4814Q12.9883-18.5059 11.665-17.959Q10.3418-17.4121 9.25781-16.3281ZM10.752-15.957Q11.6602-16.6211 12.7002-16.9043Q13.7402-17.1875 14.8047-17.085Q15.8691-16.9824 16.8701-16.5137Q17.8711-16.0449 18.7012-15.2051L21.1328-12.793Q21.3086-12.6172 21.3525-12.4512Q21.3965-12.2852 21.3379-12.0312L21.0156-10.5469L22.5195-9.0625L23.5059-9.12109Q23.6914-9.13086 23.7891-9.09668Q23.8867-9.0625 24.0332-8.91602L24.6094-8.33984L22.168-5.89844L21.5918-6.47461Q21.4453-6.62109 21.4062-6.71875Q21.3672-6.81641 21.377-7.01172L21.4453-7.98828L19.9512-9.47266L18.4277-9.21875Q18.1836-9.16992 18.042-9.2041Q17.9004-9.23828 17.7148-9.41406L15.7129-11.416Q15.5176-11.5918 15.4932-11.7529Q15.4688-11.9141 15.5859-12.1875L16.4648-14.2773Q15.293-15.3711 13.8281-15.791Q12.3633-16.2109 10.8398-15.7617Q10.7227-15.7324 10.6885-15.8057Q10.6543-15.8789 10.752-15.957Z"/>
  </g>
  <text style="stroke:none;fill:black;font-family:sans-serif;font-size:13;font-weight:bold;" transform="matrix(1 0 0 1 1289 1953)">Exporting</text>
  <text style="stroke:none;fill:black;font-family:sans-serif;font-size:13;" transform="matrix(1 0 0 1 1289 1971)">Symbols should be outlined when exporting to ensure the</text>
  <text style="stroke:none;fill:black;font-family:sans-serif;font-size:13;" transform="matrix(1 0 0 1 1289 1989)">design is preserved when submitting to Xcode.</text>
  <text id="template-version" style="stroke:none;fill:black;font-family:sans-serif;font-size:13;text-anchor:end;" transform="matrix(1 0 0 1 3036 1933)">Template v.3.0</text>
  <text style="stroke:none;fill:black;font-family:sans-serif;font-size:13;text-anchor:end;" transform="matrix(1 0 0 1 3036 1951)">Requires Xcode 13 or greater</text>
  <text id="descriptive-name" style="stroke:none;fill:black;font-family:sans-serif;font-size:13;text-anchor:end;" transform="matrix(1 0 0 1 3036 1969)">Generated from chevron.backward</text>
  <text style="stroke:none;fill:black;font-family:sans-serif;font-size:13;text-anchor:end;" transform="matrix(1 0 0 1 3036 1987)">Typeset at 100 points</text>
  <text style="stroke:none;fill:black;font-family:sans-serif;font-size:13;" transform="matrix(1 0 0 1 263 726)">Small</text>
  <text style="stroke:none;fill:black;font-family:sans-serif;font-size:13;" transform="matrix(1 0 0 1 263 1156)">Medium</text>
  <text style="stroke:none;fill:black;font-family:sans-serif;font-size:13;" transform="matrix(1 0 0 1 263 1586)">Large</text>
 </g>
 <g id="Guides">
  <g id="H-reference" style="fill:#27AAE1;stroke:none;" transform="matrix(1 0 0 1 339 696)">
   <path d="M0.993347 0L3.6377 0L29.3282-67.1326L30.0301-67.1326L30.0301-70.459L28.1227-70.459ZM11.6882-24.4797L46.9818-24.4797L46.2311-26.7288L12.4382-26.7288ZM55.1193 0L57.7637 0L30.6381-70.459L29.4327-70.459L29.4327-67.1326Z"/>
  </g>
  <line id="Baseline-S" style="fill:none;stroke:#27AAE1;opacity:1;stroke-width:0.5;" x1="263" x2="3036" y1="696" y2="696"/>
  <line id="Capline-S" style="fill:none;stroke:#27AAE1;opacity:1;stroke-width:0.5;" x1="263" x2="3036" y1="625.541" y2="625.541"/>
  <g id="H-reference" style="fill:#27AAE1;stroke:none;" transform="matrix(1 0 0 1 339 1126)">
   <path d="M0.993347 0L3.6377 0L29.3282-67.1326L30.0301-67.1326L30.0301-70.459L28.1227-70.459ZM11.6882-24.4797L46.9818-24.4797L46.2311-26.7288L12.4382-26.7288ZM55.1193 0L57.7637 0L30.6381-70.459L29.4327-70.459L29.4327-67.1326Z"/>
  </g>
  <line id="Baseline-M" style="fill:none;stroke:#27AAE1;opacity:1;stroke-width:0.5;" x1="263" x2="3036" y1="1126" y2="1126"/>
  <line id="Capline-M" style="fill:none;stroke:#27AAE1;opacity:1;stroke-width:0.5;" x1="263" x2="3036" y1="1055.54" y2="1055.54"/>
  <g id="H-reference" style="fill:#27AAE1;stroke:none;" transform="matrix(1 0 0 1 339 1556)">
   <path d="M0.993347 0L3.6377 0L29.3282-67.1326L30.0301-67.1326L30.0301-70.459L28.1227-70.459ZM11.6882-24.4797L46.9818-24.4797L46.2311-26.7288L12.4382-26.7288ZM55.1193 0L57.7637 0L30.6381-70.459L29.4327-70.459L29.4327-67.1326Z"/>
  </g>
  <line id="Baseline-L" style="fill:none;stroke:#27AAE1;opacity:1;stroke-width:0.5;" x1="263" x2="3036" y1="1556" y2="1556"/>
  <line id="Capline-L" style="fill:none;stroke:#27AAE1;opacity:1;stroke-width:0.5;" x1="263" x2="3036" y1="1485.54" y2="1485.54"/>
  <line id="left-margin-Regular-M" style="fill:none;stroke:#00AEEF;stroke-width:0.5;opacity:1.0;" x1="1413.52" x2="1413.52" y1="1030.79" y2="1150.12"/>
  <line id="right-margin-Regular-M" style="fill:none;stroke:#00AEEF;stroke-width:0.5;opacity:1.0;" x1="1486.17" x2="1486.17" y1="1030.79" y2="1150.12"/>
 </g>
 <g id="Symbols">
  <g id="Black-L" transform="matrix(1 0 0 1 2881.01 1556)">
   <path d="M6.87386-35.2697Q6.87386-32.2216 8.00471-29.6667Q9.13557-27.1117 11.727-24.6176L58.0024 20.7981Q61.546 24.3417 66.7232 24.3417Q71.9575 24.3417 75.7244 20.6339Q79.4912 16.9261 79.4912 11.7489Q79.4912 6.43917 75.3064 2.32846L36.4254-35.3281L75.3064-72.8679Q79.4912-76.9202 79.4912-82.2299Q79.4912-87.4071 75.7244-91.1149Q71.9575-94.8227 66.7232-94.8227Q61.546-94.8227 58.0024-91.2791L11.727-45.9218Q6.93227-41.2464 6.87386-35.2697Z"/>
  </g>
  <g id="Heavy-L" transform="matrix(1 0 0 1 2585.67 1556)">
   <path d="M7.14954-35.2697Q7.14954-32.6689 8.11666-30.4922Q9.08379-28.3155 11.256-26.2088L58.4254 19.95Q61.5023 23.0269 65.9956 23.0269Q70.5276 23.0269 73.7681 19.834Q77.0086 16.6411 77.0086 12.1478Q77.0086 7.58613 73.4469 4.0481L32.8331-35.3143L73.4469-74.5875Q77.0086-78.0809 77.0086-82.6426Q77.0086-87.1359 73.7681-90.3288Q70.5276-93.5217 65.9956-93.5217Q61.5023-93.5217 58.4254-90.4447L11.256-44.3306Q7.19416-40.3701 7.14954-35.2697Z"/>
  </g>
  <g id="Bold-L" transform="matrix(1 0 0 1 2290.65 1556)">
   <path d="M7.45793-35.2697Q7.45793-33.1979 8.23039-31.4732Q9.00285-29.7485 10.686-28.101L58.9044 18.7796Q61.4103 21.2855 65.0667 21.2855Q68.738 21.2855 71.3423 18.7176Q73.9465 16.1497 73.9465 12.4933Q73.9465 8.83752 71.1336 5.99478L28.4002-35.2989L71.1336-76.5342Q73.9465-79.3477 73.9465-83.0035Q73.9465-86.6599 71.3423-89.2278Q68.738-91.7957 65.0667-91.7957Q61.4103-91.7957 58.9044-89.2898L10.686-42.4384Q7.48713-39.3264 7.45793-35.2697Z"/>
  </g>
  <g id="Semibold-L" transform="matrix(1 0 0 1 1995.1 1556)">
   <path d="M7.67053-35.2697Q7.67053-33.5627 8.30878-32.1495Q8.94704-30.7364 10.293-29.4055L59.2345 17.9728Q61.3468 20.0851 64.4262 20.0851Q67.5043 20.0851 69.6699 17.948Q71.8355 15.8109 71.8355 12.7315Q71.8355 9.70022 69.5388 7.33681L25.3441-35.2883L69.5388-77.8762Q71.8355-80.221 71.8355-83.2523Q71.8355-86.3317 69.6699-88.4688Q67.5043-90.6059 64.4262-90.6059Q61.3468-90.6059 59.2345-88.4936L10.293-41.1339Q7.6891-38.6069 7.67053-35.2697Z"/>
  </g>
  <g id="Medium-L" transform="matrix(1 0 0 1 1699.26 1556)">
   <path d="M7.83173-35.2697Q7.83173-33.8392 8.36823-32.6624Q8.90473-31.4855 9.99506-30.3946L59.4849 17.361Q61.2987 19.1748 63.9406 19.1748Q66.5689 19.1748 68.4019 17.3644Q70.2349 15.554 70.2349 12.9121Q70.2349 10.3544 68.3296 8.3544L23.0269-35.2802L68.3296-78.8938Q70.2349-80.8832 70.2349-83.441Q70.2349-86.0829 68.4019-87.8933Q66.5689-89.7037 63.9406-89.7037Q61.2987-89.7037 59.4849-87.8899L9.99506-40.1448Q7.84224-38.0613 7.83173-35.2697Z"/>
  </g>
  <g id="Regular-L" transform="matrix(1 0 0 1 1403.7 1556)">
   <path d="M8.04199-35.2697Q8.04199-34.1999 8.44577-33.3312Q8.84954-32.4625 9.60641-31.6847L59.8115 16.563Q61.236 17.9876 63.3072 17.9876Q65.3487 17.9876 66.7479 16.6032Q68.1471 15.2189 68.1471 13.1477Q68.1471 11.2076 66.7523 9.68168L20.0045-35.2697L66.7523-80.2211Q68.1471-81.747 68.1471-83.6871Q68.1471-85.7583 66.7479-87.1426Q65.3487-88.527 63.3072-88.527Q61.236-88.527 59.8115-87.1024L9.60641-38.8547Q8.04199-37.3497 8.04199-35.2697Z"/>
  </g>
  <g id="Light-L" transform="matrix(1 0 0 1 1108 1556)">
   <path d="M8.04199-35.2697Q8.04199-34.4052 8.36368-33.7417Q8.68537-33.0782 9.29858-32.4851L59.8525 14.9828Q60.9282 16.0585 62.4864 16.0585Q63.9943 16.0585 65.0548 15.0231Q66.1154 13.9876 66.1154 12.4294Q66.1154 10.9818 65.09 9.84586L17.0493-35.2697L65.09-80.3853Q66.1154-81.5212 66.1154-82.9688Q66.1154-84.527 65.0548-85.5625Q63.9943-86.5979 62.4864-86.5979Q60.9282-86.5979 59.8525-85.5222L9.29858-38.0543Q8.04199-36.8982 8.04199-35.2697Z"/>
  </g>
  <g id="Thin-L" transform="matrix(1 0 0 1 812.629 1556)">
   <path d="M8.04199-35.2697Q8.04199-34.6766 8.25511-34.2845Q8.46823-33.8925 8.89145-33.5436L59.9068 12.8929Q60.521 13.5071 61.4007 13.5071Q62.2029 13.5071 62.8156 12.9331Q63.4284 12.3591 63.4284 11.4795Q63.4284 10.6833 62.8915 10.063L13.1409-35.2697L62.8915-80.6024Q63.4284-81.2227 63.4284-82.0189Q63.4284-82.8985 62.8156-83.4725Q62.2029-84.0466 61.4007-84.0466Q60.521-84.0466 59.9068-83.4323L8.89145-36.9958Q8.04199-36.3011 8.04199-35.2697Z"/>
  </g>
  <g id="Ultralight-L" transform="matrix(1 0 0 1 516.603 1556)">
   <path d="M8.04199-35.2697Q8.04199-34.8156 8.1995-34.5626Q8.35702-34.3095 8.68292-34.0858L59.9346 11.8225Q60.3125 12.2004 60.8446 12.2004Q61.2854 12.2004 61.6687 11.8627Q62.0521 11.525 62.0521 10.9929Q62.0521 10.5303 61.7655 10.1742L11.139-35.2697L61.7655-80.7136Q62.0521-81.0697 62.0521-81.5323Q62.0521-82.0644 61.6687-82.4021Q61.2854-82.7398 60.8446-82.7398Q60.3125-82.7398 59.9346-82.3619L8.68292-36.4536Q8.04199-35.9953 8.04199-35.2697Z"/>
  </g>
  <g id="Black-M" transform="matrix(1 0 0 1 2891.76 1126)">
   <path d="M5.08854-35.2606Q5.08854-32.5426 6.09425-30.2659Q7.09996-27.9891 9.44845-25.749L44.5789 8.69222Q47.6781 11.7914 52.2073 11.7914Q56.7939 11.7914 60.1187 8.52353Q63.4435 5.25566 63.4435 0.726441Q63.4435-3.96335 59.716-7.58743L30.9072-35.3177L59.716-62.9339Q63.4435-66.5008 63.4435-71.1906Q63.4435-75.7199 60.1187-78.9877Q56.7939-82.2556 52.2073-82.2556Q47.6781-82.2556 44.5789-79.1564L9.44845-44.7723Q5.14564-40.5831 5.08854-35.2606Z"/>
  </g>
  <g id="Heavy-M" transform="matrix(1 0 0 1 2596.3 1126)">
   <path d="M5.35804-35.2606Q5.35804-32.9609 6.21126-31.035Q7.06449-29.1091 9.01644-27.2306L44.9886 8.00891Q47.6638 10.6841 51.5718 10.6841Q55.521 10.6841 58.3625 7.88738Q61.204 5.09071 61.204 1.18268Q61.204-2.82129 58.0515-5.92152L27.6681-35.3043L58.0515-64.5998Q61.204-67.6564 61.204-71.6603Q61.204-75.5684 58.3625-78.365Q55.521-81.1617 51.5718-81.1617Q47.6638-81.1617 44.9886-78.4866L9.01644-43.2907Q5.40166-39.768 5.35804-35.2606Z"/>
  </g>
  <g id="Bold-M" transform="matrix(1 0 0 1 2301 1126)">
   <path d="M5.65951-35.2606Q5.65951-33.4288 6.34216-31.8954Q7.02481-30.362 8.53318-28.8881L45.447 7.24452Q47.6478 9.44533 50.8609 9.44533Q54.0971 9.44533 56.398 7.17575Q58.6989 4.90617 58.6989 1.69305Q58.6989-1.54373 56.1895-4.05795L24.0447-35.2892L56.1895-66.4633Q58.6989-68.949 58.6989-72.1858Q58.6989-75.3989 56.398-77.6685Q54.0971-79.9381 50.8609-79.9381Q47.6478-79.9381 45.447-77.7373L8.53318-41.6332Q5.68805-38.8563 5.65951-35.2606Z"/>
  </g>
  <g id="Semibold-M" transform="matrix(1 0 0 1 2005.25 1126)">
   <path d="M5.86734-35.2606Q5.86734-33.7513 6.4324-32.4886Q6.99746-31.2258 8.20002-30.0307L45.763 6.71756Q47.6368 8.59137 50.3708 8.59137Q53.1154 8.59137 55.0436 6.68516Q56.9718 4.77896 56.9718 2.04489Q56.9718-0.662992 54.9059-2.77322L21.5468-35.2788L54.9059-67.7481Q56.9718-69.8401 56.9718-72.548Q56.9718-75.2821 55.0436-77.1883Q53.1154-79.0945 50.3708-79.0945Q47.6368-79.0945 45.763-77.2207L8.20002-40.4906Q5.88549-38.2277 5.86734-35.2606Z"/>
  </g>
  <g id="Medium-M" transform="matrix(1 0 0 1 1709.27 1126)">
   <path d="M6.02492-35.2606Q6.02492-33.9959 6.50082-32.9383Q6.97672-31.8807 7.9474-30.8971L46.0026 6.31799Q47.6284 7.94385 49.9992 7.94385Q52.3711 7.94385 54.0167 6.31318Q55.6622 4.6825 55.6622 2.31167Q55.6622 0.00482281 53.9326-1.79909L19.6528-35.2709L53.9326-68.7222Q55.6622-70.5158 55.6622-72.8227Q55.6622-75.1935 54.0167-76.8242Q52.3711-78.4549 49.9992-78.4549Q47.6284-78.4549 46.0026-76.829L7.9474-39.6242Q6.0352-37.7511 6.02492-35.2606Z"/>
  </g>
  <g id="Regular-M" transform="matrix(1 0 0 1 1413.52 1126)">
   <path d="M6.23047-35.2606Q6.23047-34.3149 6.59007-33.525Q6.94967-32.735 7.61791-32.0271L46.3151 5.79682Q47.6175 7.09927 49.5145 7.09927Q51.4002 7.09927 52.6772 5.82798Q53.9542 4.55668 53.9542 2.65965Q53.9542 0.875885 52.6631-0.528476L17.1823-35.2606L52.6631-69.9928Q53.9542-71.3972 53.9542-73.1809Q53.9542-75.078 52.6772-76.3493Q51.4002-77.6206 49.5145-77.6206Q47.6175-77.6206 46.3151-76.3181L7.61791-38.4942Q6.23047-37.1294 6.23047-35.2606Z"/>
  </g>
  <g id="Light-M" transform="matrix(1 0 0 1 1117.72 1126)">
   <path d="M6.23047-35.2606Q6.23047-34.4989 6.51647-33.8929Q6.80248-33.287 7.34192-32.7447L46.3519 4.3801Q47.3415 5.36976 48.7786 5.36976Q50.1859 5.36976 51.1593 4.41125Q52.1327 3.45274 52.1327 2.01569Q52.1327 0.673496 51.1727-0.381284L14.5328-35.2606L51.1727-70.14Q52.1327-71.1948 52.1327-72.537Q52.1327-73.974 51.1593-74.9325Q50.1859-75.891 48.7786-75.891Q47.3415-75.891 46.3519-74.9014L7.34192-37.7766Q6.23047-36.7246 6.23047-35.2606Z"/>
  </g>
  <g id="Thin-M" transform="matrix(1 0 0 1 822.203 1126)">
   <path d="M6.23047-35.2606Q6.23047-34.7422 6.41914-34.3796Q6.6078-34.017 6.97691-33.6937L46.4005 2.50637Q46.9765 3.08235 47.8052 3.08235Q48.5798 3.08235 49.1517 2.53752Q49.7236 1.99269 49.7236 1.16399Q49.7236 0.405821 49.2017-0.186611L11.0287-35.2606L49.2017-70.3347Q49.7236-70.9271 49.7236-71.6853Q49.7236-72.514 49.1517-73.0588Q48.5798-73.6036 47.8052-73.6036Q46.9765-73.6036 46.4005-73.0277L6.97691-36.8276Q6.23047-36.1893 6.23047-35.2606Z"/>
  </g>
  <g id="Ultralight-M" transform="matrix(1 0 0 1 526.107 1126)">
   <path d="M6.23047-35.2606Q6.23047-34.8669 6.36928-34.6289Q6.50809-34.3909 6.78995-34.1798L46.4255 1.54665Q46.7896 1.91075 47.3067 1.91075Q47.7572 1.91075 48.1234 1.57781Q48.4897 1.24486 48.4897 0.727758Q48.4897 0.268718 48.1921-0.0868999L9.23392-35.2606L48.1921-70.4344Q48.4897-70.79 48.4897-71.249Q48.4897-71.7662 48.1234-72.0991Q47.7572-72.432 47.3067-72.432Q46.7896-72.432 46.4255-72.0679L6.78995-36.3415Q6.23047-35.9151 6.23047-35.2606Z"/>
  </g>
  <g id="Black-S" transform="matrix(1 0 0 1 2900.44 696)">
   <path d="M3.90625-35.2539Q3.90625-33.0078 4.73633-31.1279Q5.56641-29.248 7.51953-27.3926L34.8145-0.683594Q37.3535 1.85547 41.0645 1.85547Q44.8242 1.85547 47.5586-0.830078Q50.293-3.51562 50.293-7.22656Q50.293-11.084 47.2168-14.0625L25.0488-35.3027L47.2168-56.4453Q50.293-59.375 50.293-63.2324Q50.293-66.9434 47.5586-69.6289Q44.8242-72.3145 41.0645-72.3145Q37.3535-72.3145 34.8145-69.7754L7.51953-43.1152Q3.95508-39.6484 3.90625-35.2539Z"/>
  </g>
  <g id="Heavy-S" transform="matrix(1 0 0 1 2604.69 696)">
   <path d="M4.13674-35.2539Q4.13674-33.342 4.84581-31.7387Q5.55488-30.1354 7.18532-28.5681L35.1602-1.08695Q37.3766 1.12943 40.615 1.12943Q43.8907 1.12943 46.2506-1.1931Q48.6104-3.51562 48.6104-6.75406Q48.6104-10.0814 45.9837-12.6565L22.6172-35.2912L45.9837-57.8513Q48.6104-60.3892 48.6104-63.7164Q48.6104-66.9549 46.2506-69.2774Q43.8907-71.5999 40.615-71.5999Q37.3766-71.5999 35.1602-69.3836L7.18532-41.9397Q4.17404-39.0031 4.13674-35.2539Z"/>
  </g>
  <g id="Bold-S" transform="matrix(1 0 0 1 2309.05 696)">
   <path d="M4.39453-35.2539Q4.39453-33.7158 4.96826-32.4219Q5.54199-31.1279 6.81152-29.8828L35.5469-1.53809Q37.4023 0.317383 40.1123 0.317383Q42.8467 0.317383 44.7876-1.59912Q46.7285-3.51562 46.7285-6.22559Q46.7285-8.95996 44.6045-11.084L19.8975-35.2783L44.6045-59.4238Q46.7285-61.5234 46.7285-64.2578Q46.7285-66.9678 44.7876-68.8843Q42.8467-70.8008 40.1123-70.8008Q37.4023-70.8008 35.5469-68.9453L6.81152-40.625Q4.41895-38.2812 4.39453-35.2539Z"/>
  </g>
  <g id="Semibold-S" transform="matrix(1 0 0 1 2013.07 696)">
   <path d="M4.57227-35.2539Q4.57227-33.9735 5.05269-32.8929Q5.53311-31.8122 6.55381-30.7893L35.8135-1.84912Q37.4201-0.24248 39.7657-0.24248Q42.1269-0.24248 43.779-1.87905Q45.4311-3.51562 45.4311-5.86123Q45.4311-8.18682 43.6536-9.9998L18.0224-35.2694L43.6536-60.508Q45.4311-62.3055 45.4311-64.6311Q45.4311-66.9767 43.779-68.6132Q42.1269-70.2498 39.7657-70.2498Q37.4201-70.2498 35.8135-68.6432L6.55381-39.7186Q4.58779-37.7836 4.57227-35.2539Z"/>
  </g>
  <g id="Medium-S" transform="matrix(1 0 0 1 1716.92 696)">
   <path d="M4.70703-35.2539Q4.70703-34.1689 5.1167-33.25Q5.52637-32.3311 6.3584-31.4766L36.0156-2.08496Q37.4336-0.666992 39.5029-0.666992Q41.5811-0.666992 43.0142-2.09131Q44.4473-3.51562 44.4473-5.58496Q44.4473-7.60059 42.9326-9.17773L16.6006-35.2627L42.9326-61.3301Q44.4473-62.8984 44.4473-64.9141Q44.4473-66.9834 43.0142-68.4077Q41.5811-69.832 39.5029-69.832Q37.4336-69.832 36.0156-68.4141L6.3584-39.0312Q4.71582-37.4062 4.70703-35.2539Z"/>
  </g>
  <g id="Regular-S" transform="matrix(1 0 0 1 1420.94 696)">
   <path d="M4.88281-35.2539Q4.88281-34.4238 5.2002-33.7158Q5.51758-33.0078 6.10352-32.373L36.2793-2.39258Q37.4512-1.2207 39.1602-1.2207Q40.8691-1.2207 42.0166-2.36816Q43.1641-3.51562 43.1641-5.22461Q43.1641-6.83594 41.9922-8.10547L14.7461-35.2539L41.9922-62.4023Q43.1641-63.6719 43.1641-65.2832Q43.1641-66.9922 42.0166-68.1396Q40.8691-69.2871 39.1602-69.2871Q37.4512-69.2871 36.2793-68.1152L6.10352-38.1348Q4.88281-36.9141 4.88281-35.2539Z"/>
  </g>
  <g id="Light-S" transform="matrix(1 0 0 1 1125.03 696)">
   <path d="M4.88281-35.2539Q4.88281-34.5866 5.13509-34.0413Q5.38737-33.4961 5.85938-33.0078L36.3118-3.64583Q37.207-2.75065 38.5091-2.75065Q39.7949-2.75065 40.6738-3.62142Q41.5527-4.49219 41.5527-5.79427Q41.5527-7.01497 40.6738-7.97526L12.4023-35.2539L40.6738-62.5326Q41.5527-63.4928 41.5527-64.7135Q41.5527-66.0156 40.6738-66.8864Q39.7949-67.7572 38.5091-67.7572Q37.207-67.7572 36.3118-66.862L5.85938-37.5Q4.88281-36.556 4.88281-35.2539Z"/>
  </g>
  <g id="Thin-S" transform="matrix(1 0 0 1 829.379 696)">
   <path d="M4.88281-35.2539Q4.88281-34.8019 5.04899-34.4719Q5.21516-34.1419 5.53648-33.8473L36.3549-5.30336Q36.8841-4.77413 37.6481-4.77413Q38.3742-4.77413 38.8979-5.27895Q39.4216-5.78377 39.4216-6.54769Q39.4216-7.25176 38.9302-7.80305L9.30255-35.2539L38.9302-62.7048Q39.4216-63.256 39.4216-63.9601Q39.4216-64.724 38.8979-65.2289Q38.3742-65.7337 37.6481-65.7337Q36.8841-65.7337 36.3549-65.2044L5.53648-36.6605Q4.88281-36.0824 4.88281-35.2539Z"/>
  </g>
  <g id="Ultralight-S" transform="matrix(1 0 0 1 533.212 696)">
   <path d="M4.88281-35.2539Q4.88281-34.9121 5.00488-34.6924Q5.12695-34.4727 5.37109-34.2773L36.377-6.15234Q36.7188-5.81055 37.207-5.81055Q37.6465-5.81055 37.9883-6.12793Q38.3301-6.44531 38.3301-6.93359Q38.3301-7.37305 38.0371-7.71484L7.71484-35.2539L38.0371-62.793Q38.3301-63.1348 38.3301-63.5742Q38.3301-64.0625 37.9883-64.3799Q37.6465-64.6973 37.207-64.6973Q36.7188-64.6973 36.377-64.3555L5.37109-36.2305Q4.88281-35.8398 4.88281-35.2539Z"/>
  </g>
 </g>
</svg>
