<?xml version="1.0" encoding="UTF-8"?>
<!--Generator: Apple Native CoreSVG 175-->
<!DOCTYPE svg
PUBLIC "-//W3C//DTD SVG 1.1//EN"
       "http://www.w3.org/Graphics/SVG/1.1/DTD/svg11.dtd">
<svg version="1.1" xmlns="http://www.w3.org/2000/svg" xmlns:xlink="http://www.w3.org/1999/xlink" width="3300" height="2200">
 <!--glyph: "uni100BFB.medium", point size: 100.0, font version: "17.1d1e1", template writer version: "65.1"-->
 <g id="Notes">
  <rect height="2200" id="artboard" style="fill:white;opacity:1" width="3300" x="0" y="0"/>
  <line style="fill:none;stroke:black;opacity:1;stroke-width:0.5;" x1="263" x2="3036" y1="292" y2="292"/>
  <text style="stroke:none;fill:black;font-family:sans-serif;font-size:13;font-weight:bold;" transform="matrix(1 0 0 1 263 322)">Weight/Scale Variations</text>
  <text style="stroke:none;fill:black;font-family:sans-serif;font-size:13;text-anchor:middle;" transform="matrix(1 0 0 1 559.711 322)">Ultralight</text>
  <text style="stroke:none;fill:black;font-family:sans-serif;font-size:13;text-anchor:middle;" transform="matrix(1 0 0 1 856.422 322)">Thin</text>
  <text style="stroke:none;fill:black;font-family:sans-serif;font-size:13;text-anchor:middle;" transform="matrix(1 0 0 1 1153.13 322)">Light</text>
  <text style="stroke:none;fill:black;font-family:sans-serif;font-size:13;text-anchor:middle;" transform="matrix(1 0 0 1 1449.84 322)">Regular</text>
  <text style="stroke:none;fill:black;font-family:sans-serif;font-size:13;text-anchor:middle;" transform="matrix(1 0 0 1 1746.56 322)">Medium</text>
  <text style="stroke:none;fill:black;font-family:sans-serif;font-size:13;text-anchor:middle;" transform="matrix(1 0 0 1 2043.27 322)">Semibold</text>
  <text style="stroke:none;fill:black;font-family:sans-serif;font-size:13;text-anchor:middle;" transform="matrix(1 0 0 1 2339.98 322)">Bold</text>
  <text style="stroke:none;fill:black;font-family:sans-serif;font-size:13;text-anchor:middle;" transform="matrix(1 0 0 1 2636.69 322)">Heavy</text>
  <text style="stroke:none;fill:black;font-family:sans-serif;font-size:13;text-anchor:middle;" transform="matrix(1 0 0 1 2933.4 322)">Black</text>
  <line style="fill:none;stroke:black;opacity:1;stroke-width:0.5;" x1="263" x2="3036" y1="1903" y2="1903"/>
  <g transform="matrix(1 0 0 1 263 1933)">
   <path d="M9.24805 0.830078Q10.8691 0.830078 12.2949 0.214844Q13.7207-0.400391 14.8096-1.49414Q15.8984-2.58789 16.5186-4.01367Q17.1387-5.43945 17.1387-7.05078Q17.1387-8.66211 16.5186-10.0879Q15.8984-11.5137 14.8047-12.6074Q13.7109-13.7012 12.2852-14.3164Q10.8594-14.9316 9.23828-14.9316Q7.62695-14.9316 6.20117-14.3164Q4.77539-13.7012 3.69141-12.6074Q2.60742-11.5137 1.9873-10.0879Q1.36719-8.66211 1.36719-7.05078Q1.36719-5.43945 1.9873-4.01367Q2.60742-2.58789 3.69629-1.49414Q4.78516-0.400391 6.21094 0.214844Q7.63672 0.830078 9.24805 0.830078ZM9.24805-0.654297Q7.91992-0.654297 6.7627-1.14746Q5.60547-1.64062 4.73145-2.51953Q3.85742-3.39844 3.36426-4.56055Q2.87109-5.72266 2.87109-7.05078Q2.87109-8.37891 3.35938-9.54102Q3.84766-10.7031 4.72168-11.582Q5.5957-12.4609 6.75293-12.9541Q7.91016-13.4473 9.23828-13.4473Q10.5762-13.4473 11.7334-12.9541Q12.8906-12.4609 13.7695-11.582Q14.6484-10.7031 15.1465-9.54102Q15.6445-8.37891 15.6445-7.05078Q15.6445-5.72266 15.1514-4.56055Q14.6582-3.39844 13.7842-2.51953Q12.9102-1.64062 11.748-1.14746Q10.5859-0.654297 9.24805-0.654297ZM5.6543-7.05078Q5.6543-6.72852 5.85938-6.52832Q6.06445-6.32812 6.40625-6.32812L8.51562-6.32812L8.51562-4.20898Q8.51562-3.88672 8.71094-3.67676Q8.90625-3.4668 9.23828-3.4668Q9.56055-3.4668 9.77051-3.67676Q9.98047-3.88672 9.98047-4.20898L9.98047-6.32812L12.0898-6.32812Q12.4219-6.32812 12.627-6.52832Q12.832-6.72852 12.832-7.05078Q12.832-7.38281 12.627-7.58789Q12.4219-7.79297 12.0898-7.79297L9.98047-7.79297L9.98047-9.90234Q9.98047-10.2344 9.77051-10.4443Q9.56055-10.6543 9.23828-10.6543Q8.90625-10.6543 8.71094-10.4443Q8.51562-10.2344 8.51562-9.90234L8.51562-7.79297L6.40625-7.79297Q6.06445-7.79297 5.85938-7.58789Q5.6543-7.38281 5.6543-7.05078Z"/>
  </g>
  <g transform="matrix(1 0 0 1 281.867 1933)">
   <path d="M11.709 2.91016Q13.75 2.91016 15.5518 2.12891Q17.3535 1.34766 18.7305-0.0292969Q20.1074-1.40625 20.8887-3.20801Q21.6699-5.00977 21.6699-7.05078Q21.6699-9.0918 20.8887-10.8936Q20.1074-12.6953 18.7305-14.0723Q17.3535-15.4492 15.5469-16.2305Q13.7402-17.0117 11.6992-17.0117Q9.6582-17.0117 7.85645-16.2305Q6.05469-15.4492 4.68262-14.0723Q3.31055-12.6953 2.5293-10.8936Q1.74805-9.0918 1.74805-7.05078Q1.74805-5.00977 2.5293-3.20801Q3.31055-1.40625 4.6875-0.0292969Q6.06445 1.34766 7.86621 2.12891Q9.66797 2.91016 11.709 2.91016ZM11.709 1.25Q9.98047 1.25 8.47656 0.605469Q6.97266-0.0390625 5.83496-1.17676Q4.69727-2.31445 4.05762-3.81836Q3.41797-5.32227 3.41797-7.05078Q3.41797-8.7793 4.05762-10.2832Q4.69727-11.7871 5.83008-12.9297Q6.96289-14.0723 8.4668-14.7119Q9.9707-15.3516 11.6992-15.3516Q13.4277-15.3516 14.9316-14.7119Q16.4355-14.0723 17.5781-12.9297Q18.7207-11.7871 19.3652-10.2832Q20.0098-8.7793 20.0098-7.05078Q20.0098-5.32227 19.3701-3.81836Q18.7305-2.31445 17.5928-1.17676Q16.4551-0.0390625 14.9463 0.605469Q13.4375 1.25 11.709 1.25ZM7.17773-7.05078Q7.17773-6.69922 7.41211-6.47461Q7.64648-6.25 8.01758-6.25L10.8887-6.25L10.8887-3.36914Q10.8887-2.99805 11.1133-2.76855Q11.3379-2.53906 11.6895-2.53906Q12.0605-2.53906 12.29-2.76855Q12.5195-2.99805 12.5195-3.36914L12.5195-6.25L15.4004-6.25Q15.7715-6.25 16.001-6.47461Q16.2305-6.69922 16.2305-7.05078Q16.2305-7.42188 16.001-7.65137Q15.7715-7.88086 15.4004-7.88086L12.5195-7.88086L12.5195-10.752Q12.5195-11.1328 12.29-11.3623Q12.0605-11.5918 11.6895-11.5918Q11.3379-11.5918 11.1133-11.3574Q10.8887-11.123 10.8887-10.752L10.8887-7.88086L8.01758-7.88086Q7.63672-7.88086 7.40723-7.65137Q7.17773-7.42188 7.17773-7.05078Z"/>
  </g>
  <g transform="matrix(1 0 0 1 305.646 1933)">
   <path d="M14.9707 5.66406Q17.0605 5.66406 18.96 5.01465Q20.8594 4.36523 22.4512 3.19336Q24.043 2.02148 25.2197 0.429688Q26.3965-1.16211 27.0459-3.06641Q27.6953-4.9707 27.6953-7.05078Q27.6953-9.14062 27.0459-11.04Q26.3965-12.9395 25.2197-14.5312Q24.043-16.123 22.4512-17.2998Q20.8594-18.4766 18.9551-19.126Q17.0508-19.7754 14.9609-19.7754Q12.8711-19.7754 10.9717-19.126Q9.07227-18.4766 7.48535-17.2998Q5.89844-16.123 4.72168-14.5312Q3.54492-12.9395 2.90039-11.04Q2.25586-9.14062 2.25586-7.05078Q2.25586-4.9707 2.90527-3.06641Q3.55469-1.16211 4.72656 0.429688Q5.89844 2.02148 7.49023 3.19336Q9.08203 4.36523 10.9814 5.01465Q12.8809 5.66406 14.9707 5.66406ZM14.9707 3.84766Q13.1641 3.84766 11.5283 3.2959Q9.89258 2.74414 8.53516 1.74805Q7.17773 0.751953 6.17676-0.610352Q5.17578-1.97266 4.62891-3.6084Q4.08203-5.24414 4.08203-7.05078Q4.08203-8.86719 4.62891-10.5029Q5.17578-12.1387 6.17188-13.501Q7.16797-14.8633 8.52539-15.8594Q9.88281-16.8555 11.5186-17.4023Q13.1543-17.9492 14.9609-17.9492Q16.7773-17.9492 18.4131-17.4023Q20.0488-16.8555 21.4111-15.8594Q22.7734-14.8633 23.7695-13.501Q24.7656-12.1387 25.3174-10.5029Q25.8691-8.86719 25.8691-7.05078Q25.8789-5.24414 25.332-3.6084Q24.7852-1.97266 23.7842-0.610352Q22.7832 0.751953 21.4209 1.74805Q20.0586 2.74414 18.4229 3.2959Q16.7871 3.84766 14.9707 3.84766ZM9.19922-7.05078Q9.19922-6.66992 9.45801-6.4209Q9.7168-6.17188 10.1172-6.17188L14.0625-6.17188L14.0625-2.2168Q14.0625-1.81641 14.3115-1.55762Q14.5605-1.29883 14.9512-1.29883Q15.3516-1.29883 15.6104-1.55273Q15.8691-1.80664 15.8691-2.2168L15.8691-6.17188L19.8242-6.17188Q20.2246-6.17188 20.4785-6.4209Q20.7324-6.66992 20.7324-7.05078Q20.7324-7.46094 20.4785-7.71484Q20.2246-7.96875 19.8242-7.96875L15.8691-7.96875L15.8691-11.9141Q15.8691-12.3242 15.6104-12.583Q15.3516-12.8418 14.9512-12.8418Q14.5605-12.8418 14.3115-12.583Q14.0625-12.3242 14.0625-11.9141L14.0625-7.96875L10.1172-7.96875Q9.70703-7.96875 9.45312-7.71484Q9.19922-7.46094 9.19922-7.05078Z"/>
  </g>
  <text style="stroke:none;fill:black;font-family:sans-serif;font-size:13;font-weight:bold;" transform="matrix(1 0 0 1 263 1953)">Design Variations</text>
  <text style="stroke:none;fill:black;font-family:sans-serif;font-size:13;" transform="matrix(1 0 0 1 263 1971)">Symbols are supported in up to nine weights and three scales.</text>
  <text style="stroke:none;fill:black;font-family:sans-serif;font-size:13;" transform="matrix(1 0 0 1 263 1989)">For optimal layout with text and other symbols, vertically align</text>
  <text style="stroke:none;fill:black;font-family:sans-serif;font-size:13;" transform="matrix(1 0 0 1 263 2007)">symbols with the adjacent text.</text>
  <line style="fill:none;stroke:#00AEEF;stroke-width:0.5;opacity:1.0;" x1="776" x2="776" y1="1919" y2="1933"/>
  <g transform="matrix(1 0 0 1 776 1933)">
   <path d="M3.31055 0.15625Q3.70117 0.15625 3.91602-0.00976562Q4.13086-0.175781 4.26758-0.585938L5.52734-4.0332L11.2891-4.0332L12.5488-0.585938Q12.6855-0.175781 12.9004-0.00976562Q13.1152 0.15625 13.4961 0.15625Q13.8867 0.15625 14.1162-0.0585938Q14.3457-0.273438 14.3457-0.644531Q14.3457-0.869141 14.2383-1.17188L9.6582-13.3691Q9.48242-13.8184 9.17969-14.043Q8.87695-14.2676 8.4082-14.2676Q7.5-14.2676 7.17773-13.3789L2.59766-1.16211Q2.49023-0.859375 2.49023-0.634766Q2.49023-0.263672 2.70996-0.0537109Q2.92969 0.15625 3.31055 0.15625ZM6.00586-5.51758L8.37891-12.0898L8.42773-12.0898L10.8008-5.51758Z"/>
  </g>
  <line style="fill:none;stroke:#00AEEF;stroke-width:0.5;opacity:1.0;" x1="793.197" x2="793.197" y1="1919" y2="1933"/>
  <text style="stroke:none;fill:black;font-family:sans-serif;font-size:13;font-weight:bold;" transform="matrix(1 0 0 1 776 1953)">Margins</text>
  <text style="stroke:none;fill:black;font-family:sans-serif;font-size:13;" transform="matrix(1 0 0 1 776 1971)">Leading and trailing margins on the left and right side of each symbol</text>
  <text style="stroke:none;fill:black;font-family:sans-serif;font-size:13;" transform="matrix(1 0 0 1 776 1989)">can be adjusted by modifying the x-location of the margin guidelines.</text>
  <text style="stroke:none;fill:black;font-family:sans-serif;font-size:13;" transform="matrix(1 0 0 1 776 2007)">Modifications are automatically applied proportionally to all</text>
  <text style="stroke:none;fill:black;font-family:sans-serif;font-size:13;" transform="matrix(1 0 0 1 776 2025)">scales and weights.</text>
  <g transform="matrix(1 0 0 1 1289 1933)">
   <path d="M2.8418 1.86523L4.54102 3.57422Q5.18555 4.22852 5.90332 4.17969Q6.62109 4.13086 7.31445 3.35938L18.0078-8.42773L17.041-9.4043L6.42578 2.27539Q6.16211 2.57812 5.89355 2.61719Q5.625 2.65625 5.27344 2.30469L4.10156 1.14258Q3.75 0.791016 3.79395 0.522461Q3.83789 0.253906 4.14062-0.0195312L15.6152-10.8203L14.6387-11.7871L3.04688-0.898438Q2.30469-0.214844 2.25098 0.498047Q2.19727 1.21094 2.8418 1.86523ZM9.25781-16.3281Q8.94531-16.0254 8.90625-15.6348Q8.86719-15.2441 9.04297-14.9512Q9.21875-14.6777 9.55566-14.541Q9.89258-14.4043 10.3809-14.5215Q11.4746-14.7754 12.5977-14.7314Q13.7207-14.6875 14.7949-13.9844L14.209-12.5293Q13.9551-11.9043 14.0674-11.4404Q14.1797-10.9766 14.5801-10.5664L16.875-8.25195Q17.2363-7.88086 17.5781-7.82227Q17.9199-7.76367 18.3398-7.8418L19.4043-8.03711L20.0684-7.36328L20.0293-6.80664Q20-6.43555 20.1221-6.12305Q20.2441-5.81055 20.6055-5.44922L21.3672-4.70703Q21.7285-4.3457 22.1533-4.33105Q22.5781-4.31641 22.9297-4.66797L25.8398-7.58789Q26.1914-7.93945 26.1816-8.35449Q26.1719-8.76953 25.8105-9.13086L25.0391-9.89258Q24.6875-10.2539 24.3799-10.3857Q24.0723-10.5176 23.7109-10.4883L23.1348-10.4395L22.4902-11.0742L22.7344-12.1973Q22.832-12.6172 22.6953-12.9834Q22.5586-13.3496 22.1191-13.7891L19.9219-15.9766Q18.6719-17.2168 17.2607-17.8369Q15.8496-18.457 14.4189-18.4814Q12.9883-18.5059 11.665-17.959Q10.3418-17.4121 9.25781-16.3281ZM10.752-15.957Q11.6602-16.6211 12.7002-16.9043Q13.7402-17.1875 14.8047-17.085Q15.8691-16.9824 16.8701-16.5137Q17.8711-16.0449 18.7012-15.2051L21.1328-12.793Q21.3086-12.6172 21.3525-12.4512Q21.3965-12.2852 21.3379-12.0312L21.0156-10.5469L22.5195-9.0625L23.5059-9.12109Q23.6914-9.13086 23.7891-9.09668Q23.8867-9.0625 24.0332-8.91602L24.6094-8.33984L22.168-5.89844L21.5918-6.47461Q21.4453-6.62109 21.4062-6.71875Q21.3672-6.81641 21.377-7.01172L21.4453-7.98828L19.9512-9.47266L18.4277-9.21875Q18.1836-9.16992 18.042-9.2041Q17.9004-9.23828 17.7148-9.41406L15.7129-11.416Q15.5176-11.5918 15.4932-11.7529Q15.4688-11.9141 15.5859-12.1875L16.4648-14.2773Q15.293-15.3711 13.8281-15.791Q12.3633-16.2109 10.8398-15.7617Q10.7227-15.7324 10.6885-15.8057Q10.6543-15.8789 10.752-15.957Z"/>
  </g>
  <text style="stroke:none;fill:black;font-family:sans-serif;font-size:13;font-weight:bold;" transform="matrix(1 0 0 1 1289 1953)">Exporting</text>
  <text style="stroke:none;fill:black;font-family:sans-serif;font-size:13;" transform="matrix(1 0 0 1 1289 1971)">Symbols should be outlined when exporting to ensure the</text>
  <text style="stroke:none;fill:black;font-family:sans-serif;font-size:13;" transform="matrix(1 0 0 1 1289 1989)">design is preserved when submitting to Xcode.</text>
  <text id="template-version" style="stroke:none;fill:black;font-family:sans-serif;font-size:13;text-anchor:end;" transform="matrix(1 0 0 1 3036 1933)">Template v.3.0</text>
  <text style="stroke:none;fill:black;font-family:sans-serif;font-size:13;text-anchor:end;" transform="matrix(1 0 0 1 3036 1951)">Requires Xcode 13 or greater</text>
  <text id="descriptive-name" style="stroke:none;fill:black;font-family:sans-serif;font-size:13;text-anchor:end;" transform="matrix(1 0 0 1 3036 1969)">Generated from chevron.forward</text>
  <text style="stroke:none;fill:black;font-family:sans-serif;font-size:13;text-anchor:end;" transform="matrix(1 0 0 1 3036 1987)">Typeset at 100 points</text>
  <text style="stroke:none;fill:black;font-family:sans-serif;font-size:13;" transform="matrix(1 0 0 1 263 726)">Small</text>
  <text style="stroke:none;fill:black;font-family:sans-serif;font-size:13;" transform="matrix(1 0 0 1 263 1156)">Medium</text>
  <text style="stroke:none;fill:black;font-family:sans-serif;font-size:13;" transform="matrix(1 0 0 1 263 1586)">Large</text>
 </g>
 <g id="Guides">
  <g id="H-reference" style="fill:#27AAE1;stroke:none;" transform="matrix(1 0 0 1 339 696)">
   <path d="M0.993347 0L3.6377 0L29.3282-67.1326L30.0301-67.1326L30.0301-70.459L28.1227-70.459ZM11.6882-24.4797L46.9818-24.4797L46.2311-26.7288L12.4382-26.7288ZM55.1193 0L57.7637 0L30.6381-70.459L29.4327-70.459L29.4327-67.1326Z"/>
  </g>
  <line id="Baseline-S" style="fill:none;stroke:#27AAE1;opacity:1;stroke-width:0.5;" x1="263" x2="3036" y1="696" y2="696"/>
  <line id="Capline-S" style="fill:none;stroke:#27AAE1;opacity:1;stroke-width:0.5;" x1="263" x2="3036" y1="625.541" y2="625.541"/>
  <g id="H-reference" style="fill:#27AAE1;stroke:none;" transform="matrix(1 0 0 1 339 1126)">
   <path d="M0.993347 0L3.6377 0L29.3282-67.1326L30.0301-67.1326L30.0301-70.459L28.1227-70.459ZM11.6882-24.4797L46.9818-24.4797L46.2311-26.7288L12.4382-26.7288ZM55.1193 0L57.7637 0L30.6381-70.459L29.4327-70.459L29.4327-67.1326Z"/>
  </g>
  <line id="Baseline-M" style="fill:none;stroke:#27AAE1;opacity:1;stroke-width:0.5;" x1="263" x2="3036" y1="1126" y2="1126"/>
  <line id="Capline-M" style="fill:none;stroke:#27AAE1;opacity:1;stroke-width:0.5;" x1="263" x2="3036" y1="1055.54" y2="1055.54"/>
  <g id="H-reference" style="fill:#27AAE1;stroke:none;" transform="matrix(1 0 0 1 339 1556)">
   <path d="M0.993347 0L3.6377 0L29.3282-67.1326L30.0301-67.1326L30.0301-70.459L28.1227-70.459ZM11.6882-24.4797L46.9818-24.4797L46.2311-26.7288L12.4382-26.7288ZM55.1193 0L57.7637 0L30.6381-70.459L29.4327-70.459L29.4327-67.1326Z"/>
  </g>
  <line id="Baseline-L" style="fill:none;stroke:#27AAE1;opacity:1;stroke-width:0.5;" x1="263" x2="3036" y1="1556" y2="1556"/>
  <line id="Capline-L" style="fill:none;stroke:#27AAE1;opacity:1;stroke-width:0.5;" x1="263" x2="3036" y1="1485.54" y2="1485.54"/>
  <line id="left-margin-Regular-M" style="fill:none;stroke:#00AEEF;stroke-width:0.5;opacity:1.0;" x1="1413.52" x2="1413.52" y1="1030.79" y2="1150.12"/>
  <line id="right-margin-Regular-M" style="fill:none;stroke:#00AEEF;stroke-width:0.5;opacity:1.0;" x1="1486.17" x2="1486.17" y1="1030.79" y2="1150.12"/>
 </g>
 <g id="Symbols">
  <g id="Black-L" transform="matrix(1 0 0 1 2881.01 1556)">
   <path d="M97.9115-35.2697Q97.8531-41.2464 93.0583-45.9218L46.7842-91.2791Q43.2394-94.8227 38.0829-94.8227Q32.8278-94.8227 29.061-91.1149Q25.2941-87.4071 25.2941-82.2299Q25.2941-76.9202 29.4789-72.8679L68.382-35.3281L29.4789 2.32846Q25.2941 6.43917 25.2941 11.7489Q25.2941 16.9261 29.061 20.6339Q32.8278 24.3417 38.0829 24.3417Q43.2394 24.3417 46.7842 20.7981L93.0583-24.6176Q95.6498-27.1117 96.7806-29.6667Q97.9115-32.2216 97.9115-35.2697Z"/>
  </g>
  <g id="Heavy-L" transform="matrix(1 0 0 1 2585.67 1556)">
   <path d="M94.8775-35.2697Q94.8329-40.3701 90.771-44.3306L43.6077-90.4447Q40.5247-93.5217 36.0612-93.5217Q31.4995-93.5217 28.2589-90.3288Q25.0184-87.1359 25.0184-82.6426Q25.0184-78.0809 28.5802-74.5875L69.2297-35.3143L28.5802 4.0481Q25.0184 7.58613 25.0184 12.1478Q25.0184 16.6411 28.2589 19.834Q31.4995 23.0269 36.0612 23.0269Q40.5247 23.0269 43.6077 19.95L90.771-26.2088Q92.9432-28.3155 93.9104-30.4922Q94.8775-32.6689 94.8775-35.2697Z"/>
  </g>
  <g id="Bold-L" transform="matrix(1 0 0 1 2290.65 1556)">
   <path d="M91.1986-35.2697Q91.1694-39.3264 87.9706-42.4384L39.7664-89.2898Q37.2463-91.7957 33.6269-91.7957Q29.9185-91.7957 27.3143-89.2278Q24.71-86.6599 24.71-83.0035Q24.71-79.3477 27.523-76.5342L70.3076-35.2989L27.523 5.99478Q24.71 8.83752 24.71 12.4933Q24.71 16.1497 27.3143 18.7176Q29.9185 21.2855 33.6269 21.2855Q37.2463 21.2855 39.7664 18.7796L87.9706-28.101Q89.6537-29.7485 90.4262-31.4732Q91.1986-33.1979 91.1986-35.2697Z"/>
  </g>
  <g id="Semibold-L" transform="matrix(1 0 0 1 1995.1 1556)">
   <path d="M88.6624-35.2697Q88.6439-38.6069 86.0399-41.1339L37.1183-88.4936Q34.9861-90.6059 31.9487-90.6059Q28.8286-90.6059 26.663-88.4688Q24.4974-86.3317 24.4974-83.2523Q24.4974-80.221 26.7942-77.8762L71.0507-35.2883L26.7942 7.33681Q24.4974 9.70022 24.4974 12.7315Q24.4974 15.8109 26.663 17.948Q28.8286 20.0851 31.9487 20.0851Q34.9861 20.0851 37.1183 17.9728L86.0399-29.4055Q87.3859-30.7364 88.0242-32.1495Q88.6624-33.5627 88.6624-35.2697Z"/>
  </g>
  <g id="Medium-L" transform="matrix(1 0 0 1 1699.26 1556)">
   <path d="M86.7394-35.2697Q86.7289-38.0613 84.5761-40.1448L35.1104-87.8899Q33.2724-89.7037 30.6762-89.7037Q28.0022-89.7037 26.1692-87.8933Q24.3362-86.0829 24.3362-83.441Q24.3362-80.8832 26.2416-78.8938L71.6141-35.2802L26.2416 8.3544Q24.3362 10.3544 24.3362 12.9121Q24.3362 15.554 26.1692 17.3644Q28.0022 19.1748 30.6762 19.1748Q33.2724 19.1748 35.1104 17.361L84.5761-30.3946Q85.6664-31.4855 86.2029-32.6624Q86.7394-33.8392 86.7394-35.2697Z"/>
  </g>
  <g id="Regular-L" transform="matrix(1 0 0 1 1403.7 1556)">
   <path d="M84.2311-35.2697Q84.2311-37.3497 82.6667-38.8547L32.4913-87.1024Q31.0371-88.527 29.0165-88.527Q26.9243-88.527 25.5252-87.1426Q24.126-85.7583 24.126-83.6871Q24.126-81.747 25.5208-80.2211L72.349-35.2697L25.5208 9.68168Q24.126 11.2076 24.126 13.1477Q24.126 15.2189 25.5252 16.6032Q26.9243 17.9876 29.0165 17.9876Q31.0371 17.9876 32.4913 16.563L82.6667-31.6847Q83.4235-32.4625 83.8273-33.3312Q84.2311-34.1999 84.2311-35.2697Z"/>
  </g>
  <g id="Light-L" transform="matrix(1 0 0 1 1108 1556)">
   <path d="M82.1994-35.2697Q82.1994-36.8982 80.9428-38.0543L30.4391-85.5222Q29.3132-86.5979 27.7852-86.5979Q26.2471-86.5979 25.1865-85.5625Q24.126-84.527 24.126-82.9688Q24.126-81.5212 25.1514-80.3853L73.2725-35.2697L25.1514 9.84586Q24.126 10.9818 24.126 12.4294Q24.126 13.9876 25.1865 15.0231Q26.2471 16.0585 27.7852 16.0585Q29.3132 16.0585 30.4391 14.9828L80.9428-32.4851Q81.556-33.0782 81.8777-33.7417Q82.1994-34.4052 82.1994-35.2697Z"/>
  </g>
  <g id="Thin-L" transform="matrix(1 0 0 1 812.629 1556)">
   <path d="M79.5123-35.2697Q79.5123-36.3011 78.6629-36.9958L27.7249-83.4323Q27.0333-84.0466 26.1567-84.0466Q25.3514-84.0466 24.7387-83.4725Q24.126-82.8985 24.126-82.0189Q24.126-81.2227 24.6628-80.6024L74.4939-35.2697L24.6628 10.063Q24.126 10.6833 24.126 11.4795Q24.126 12.3591 24.7387 12.9331Q25.3514 13.5071 26.1567 13.5071Q27.0333 13.5071 27.7249 12.8929L78.6629-33.5436Q79.0861-33.8925 79.2992-34.2845Q79.5123-34.6766 79.5123-35.2697Z"/>
  </g>
  <g id="Ultralight-L" transform="matrix(1 0 0 1 516.603 1556)">
   <path d="M78.1361-35.2697Q78.1361-35.9953 77.4951-36.4536L26.3347-82.3619Q25.8655-82.7398 25.3226-82.7398Q24.8927-82.7398 24.5093-82.4021Q24.126-82.0644 24.126-81.5323Q24.126-81.0697 24.4126-80.7136L75.1195-35.2697L24.4126 10.1742Q24.126 10.5303 24.126 10.9929Q24.126 11.525 24.5093 11.8627Q24.8927 12.2004 25.3226 12.2004Q25.8655 12.2004 26.3347 11.8225L77.4951-34.0858Q77.821-34.3095 77.9785-34.5626Q78.1361-34.8156 78.1361-35.2697Z"/>
  </g>
  <g id="Black-M" transform="matrix(1 0 0 1 2891.76 1126)">
   <path d="M78.1883-35.2606Q78.1312-40.5831 73.8284-44.7723L38.6977-79.1564Q35.5988-82.2556 31.0751-82.2556Q26.483-82.2556 23.1581-78.9877Q19.8333-75.7199 19.8333-71.1906Q19.8333-66.5008 23.5609-62.9339L52.3749-35.3177L23.5609-7.58743Q19.8333-3.96335 19.8333 0.726441Q19.8333 5.25566 23.1581 8.52353Q26.483 11.7914 31.0751 11.7914Q35.5988 11.7914 38.6977 8.69222L73.8284-25.749Q76.1769-27.9891 77.1826-30.2659Q78.1883-32.5426 78.1883-35.2606Z"/>
  </g>
  <g id="Heavy-M" transform="matrix(1 0 0 1 2596.3 1126)">
   <path d="M75.4099-35.2606Q75.3662-39.768 71.7514-43.2907L35.7817-78.4866Q33.1041-81.1617 29.2123-81.1617Q25.2469-81.1617 22.4054-78.365Q19.5638-75.5684 19.5638-71.6603Q19.5638-67.6564 22.7164-64.5998L53.1185-35.3043L22.7164-5.92152Q19.5638-2.82129 19.5638 1.18268Q19.5638 5.09071 22.4054 7.88738Q25.2469 10.6841 29.2123 10.6841Q33.1041 10.6841 35.7817 8.00891L71.7514-27.2306Q73.7034-29.1091 74.5566-31.035Q75.4099-32.9609 75.4099-35.2606Z"/>
  </g>
  <g id="Bold-M" transform="matrix(1 0 0 1 2301 1126)">
   <path d="M72.3017-35.2606Q72.2732-38.8563 69.428-41.6332L32.5198-77.7373Q30.3134-79.9381 27.1285-79.9381Q23.8641-79.9381 21.5633-77.6685Q19.2624-75.3989 19.2624-72.1858Q19.2624-68.949 21.7717-66.4633L53.9502-35.2892L21.7717-4.05795Q19.2624-1.54373 19.2624 1.69305Q19.2624 4.90617 21.5633 7.17575Q23.8641 9.44533 27.1285 9.44533Q30.3134 9.44533 32.5198 7.24452L69.428-28.8881Q70.9364-30.362 71.6191-31.8954Q72.3017-33.4288 72.3017-35.2606Z"/>
  </g>
  <g id="Semibold-M" transform="matrix(1 0 0 1 2005.25 1126)">
   <path d="M70.159-35.2606Q70.1408-38.2277 67.8263-40.4906L30.271-77.2207Q28.3896-79.0945 25.692-79.0945Q22.9109-79.0945 20.9827-77.1883Q19.0545-75.2821 19.0545-72.548Q19.0545-69.8401 21.1204-67.7481L54.5237-35.2788L21.1204-2.77322Q19.0545-0.662992 19.0545 2.04489Q19.0545 4.77896 20.9827 6.68516Q22.9109 8.59137 25.692 8.59137Q28.3896 8.59137 30.271 6.71756L67.8263-30.0307Q69.0289-31.2258 69.5939-32.4886Q70.159-33.7513 70.159-35.2606Z"/>
  </g>
  <g id="Medium-M" transform="matrix(1 0 0 1 1709.27 1126)">
   <path d="M68.5343-35.2606Q68.524-37.7511 66.6118-39.6242L28.5659-76.829Q26.9308-78.4549 24.6027-78.4549Q22.1881-78.4549 20.5425-76.8242Q18.897-75.1935 18.897-72.8227Q18.897-70.5158 20.6266-68.7222L54.9585-35.2709L20.6266-1.79909Q18.897 0.00482281 18.897 2.31167Q18.897 4.6825 20.5425 6.31318Q22.1881 7.94385 24.6027 7.94385Q26.9308 7.94385 28.5659 6.31799L66.6118-30.8971Q67.5825-31.8807 68.0584-32.9383Q68.5343-33.9959 68.5343-35.2606Z"/>
  </g>
  <g id="Regular-M" transform="matrix(1 0 0 1 1413.52 1126)">
   <path d="M66.4151-35.2606Q66.4151-37.1294 65.0277-38.4942L26.3418-76.3181Q25.0281-77.6206 23.182-77.6206Q21.2453-77.6206 19.9684-76.3493Q18.6914-75.078 18.6914-73.1809Q18.6914-71.3972 19.9825-69.9928L55.5256-35.2606L19.9825-0.528476Q18.6914 0.875885 18.6914 2.65965Q18.6914 4.55668 19.9684 5.82798Q21.2453 7.09927 23.182 7.09927Q25.0281 7.09927 26.3418 5.79682L65.0277-32.0271Q65.6959-32.735 66.0555-33.525Q66.4151-34.3149 66.4151-35.2606Z"/>
  </g>
  <g id="Light-M" transform="matrix(1 0 0 1 1117.72 1126)">
   <path d="M64.5936-35.2606Q64.5936-36.7246 63.4821-37.7766L24.5019-74.9014Q23.4825-75.891 22.078-75.891Q20.6382-75.891 19.6648-74.9325Q18.6914-73.974 18.6914-72.537Q18.6914-71.1948 19.6513-70.14L56.3535-35.2606L19.6513-0.381284Q18.6914 0.673496 18.6914 2.01569Q18.6914 3.45274 19.6648 4.41125Q20.6382 5.36976 22.078 5.36976Q23.4825 5.36976 24.5019 4.3801L63.4821-32.7447Q64.0216-33.287 64.3076-33.8929Q64.5936-34.4989 64.5936-35.2606Z"/>
  </g>
  <g id="Thin-M" transform="matrix(1 0 0 1 822.203 1126)">
   <path d="M62.1845-35.2606Q62.1845-36.1893 61.4381-36.8276L22.0685-73.0277Q21.4385-73.6036 20.618-73.6036Q19.8351-73.6036 19.2633-73.0588Q18.6914-72.514 18.6914-71.6853Q18.6914-70.9271 19.2133-70.3347L57.4486-35.2606L19.2133-0.186611Q18.6914 0.405821 18.6914 1.16399Q18.6914 1.99269 19.2633 2.53752Q19.8351 3.08235 20.618 3.08235Q21.4385 3.08235 22.0685 2.50637L61.4381-33.6937Q61.8072-34.017 61.9958-34.3796Q62.1845-34.7422 62.1845-35.2606Z"/>
  </g>
  <g id="Ultralight-M" transform="matrix(1 0 0 1 526.107 1126)">
   <path d="M60.9506-35.2606Q60.9506-35.9151 60.3911-36.3415L20.8221-72.0679Q20.3915-72.432 19.8702-72.432Q19.4238-72.432 19.0576-72.0991Q18.6914-71.7662 18.6914-71.249Q18.6914-70.79 18.989-70.4344L58.0094-35.2606L18.989-0.0868999Q18.6914 0.268718 18.6914 0.727758Q18.6914 1.24486 19.0576 1.57781Q19.4238 1.91075 19.8702 1.91075Q20.3915 1.91075 20.8221 1.54665L60.3911-34.1798Q60.673-34.3909 60.8118-34.6289Q60.9506-34.8669 60.9506-35.2606Z"/>
  </g>
  <g id="Black-S" transform="matrix(1 0 0 1 2900.44 696)">
   <path d="M62.0117-35.2539Q61.9629-39.6484 58.3984-43.1152L31.1035-69.7754Q28.5645-72.3145 24.8535-72.3145Q21.0938-72.3145 18.3594-69.6289Q15.625-66.9434 15.625-63.2324Q15.625-59.375 18.7012-56.4453L40.8691-35.3027L18.7012-14.0625Q15.625-11.084 15.625-7.22656Q15.625-3.51562 18.3594-0.830078Q21.0938 1.85547 24.8535 1.85547Q28.5645 1.85547 31.1035-0.683594L58.3984-27.3926Q60.3516-29.248 61.1816-31.1279Q62.0117-33.0078 62.0117-35.2539Z"/>
  </g>
  <g id="Heavy-S" transform="matrix(1 0 0 1 2604.69 696)">
   <path d="M59.8682-35.2539Q59.8309-39.0031 56.8196-41.9397L28.8447-69.3836Q26.6283-71.5999 23.4014-71.5999Q20.1142-71.5999 17.7543-69.2774Q15.3945-66.9549 15.3945-63.7164Q15.3945-60.3892 18.0212-57.8513L41.3993-35.2912L18.0212-12.6565Q15.3945-10.0814 15.3945-6.75406Q15.3945-3.51562 17.7543-1.1931Q20.1142 1.12943 23.4014 1.12943Q26.6283 1.12943 28.8447-1.08695L56.8196-28.5681Q58.45-30.1354 59.1591-31.7387Q59.8682-33.342 59.8682-35.2539Z"/>
  </g>
  <g id="Bold-S" transform="matrix(1 0 0 1 2309.05 696)">
   <path d="M57.4707-35.2539Q57.4463-38.2812 55.0537-40.625L26.3184-68.9453Q24.4629-70.8008 21.7773-70.8008Q19.0186-70.8008 17.0776-68.8843Q15.1367-66.9678 15.1367-64.2578Q15.1367-61.5234 17.2607-59.4238L41.9922-35.2783L17.2607-11.084Q15.1367-8.95996 15.1367-6.22559Q15.1367-3.51562 17.0776-1.59912Q19.0186 0.317383 21.7773 0.317383Q24.4629 0.317383 26.3184-1.53809L55.0537-29.8828Q56.3232-31.1279 56.897-32.4219Q57.4707-33.7158 57.4707-35.2539Z"/>
  </g>
  <g id="Semibold-S" transform="matrix(1 0 0 1 2013.07 696)">
   <path d="M55.8178-35.2539Q55.8022-37.7836 53.8362-39.7186L24.5766-68.6432Q22.9699-70.2498 20.6576-70.2498Q18.2632-70.2498 16.6111-68.6132Q14.959-66.9767 14.959-64.6311Q14.959-62.3055 16.7364-60.508L42.401-35.2694L16.7364-9.9998Q14.959-8.18682 14.959-5.86123Q14.959-3.51562 16.6111-1.87905Q18.2632-0.24248 20.6576-0.24248Q22.9699-0.24248 24.5766-1.84912L53.8362-30.7893Q54.8569-31.8122 55.3374-32.8929Q55.8178-33.9735 55.8178-35.2539Z"/>
  </g>
  <g id="Medium-S" transform="matrix(1 0 0 1 1716.92 696)">
   <path d="M54.5645-35.2539Q54.5557-37.4062 52.9131-39.0312L23.2559-68.4141Q21.8379-69.832 19.8086-69.832Q17.6904-69.832 16.2573-68.4077Q14.8242-66.9834 14.8242-64.9141Q14.8242-62.8984 16.3389-61.3301L42.7109-35.2627L16.3389-9.17773Q14.8242-7.60059 14.8242-5.58496Q14.8242-3.51562 16.2573-2.09131Q17.6904-0.666992 19.8086-0.666992Q21.8379-0.666992 23.2559-2.08496L52.9131-31.4766Q53.7451-32.3311 54.1548-33.25Q54.5645-34.1689 54.5645-35.2539Z"/>
  </g>
  <g id="Regular-S" transform="matrix(1 0 0 1 1420.94 696)">
   <path d="M52.9297-35.2539Q52.9297-36.9141 51.709-38.1348L21.5332-68.1152Q20.3613-69.2871 18.7012-69.2871Q16.9434-69.2871 15.7959-68.1396Q14.6484-66.9922 14.6484-65.2832Q14.6484-63.6719 15.8203-62.4023L43.1152-35.2539L15.8203-8.10547Q14.6484-6.83594 14.6484-5.22461Q14.6484-3.51562 15.7959-2.36816Q16.9434-1.2207 18.7012-1.2207Q20.3613-1.2207 21.5332-2.39258L51.709-32.373Q52.2949-33.0078 52.6123-33.7158Q52.9297-34.4238 52.9297-35.2539Z"/>
  </g>
  <g id="Light-S" transform="matrix(1 0 0 1 1125.03 696)">
   <path d="M51.3184-35.2539Q51.3184-36.556 50.3418-37.5L19.9056-66.862Q18.9941-67.7572 17.7246-67.7572Q16.4062-67.7572 15.5273-66.8864Q14.6484-66.0156 14.6484-64.7135Q14.6484-63.4928 15.5273-62.5326L43.8477-35.2539L15.5273-7.97526Q14.6484-7.01497 14.6484-5.79427Q14.6484-4.49219 15.5273-3.62142Q16.4062-2.75065 17.7246-2.75065Q18.9941-2.75065 19.9056-3.64583L50.3418-33.0078Q50.8138-33.4961 51.0661-34.0413Q51.3184-34.5866 51.3184-35.2539Z"/>
  </g>
  <g id="Thin-S" transform="matrix(1 0 0 1 829.379 696)">
   <path d="M49.1872-35.2539Q49.1872-36.0824 48.5336-36.6605L17.753-65.2044Q17.1859-65.7337 16.433-65.7337Q15.6959-65.7337 15.1722-65.2289Q14.6484-64.724 14.6484-63.9601Q14.6484-63.256 15.1399-62.7048L44.8163-35.2539L15.1399-7.80305Q14.6484-7.25176 14.6484-6.54769Q14.6484-5.78377 15.1722-5.27895Q15.6959-4.77413 16.433-4.77413Q17.1859-4.77413 17.753-5.30336L48.5336-33.8473Q48.8549-34.1419 49.0211-34.4719Q49.1872-34.8019 49.1872-35.2539Z"/>
  </g>
  <g id="Ultralight-S" transform="matrix(1 0 0 1 533.212 696)">
   <path d="M48.0957-35.2539Q48.0957-35.8398 47.6074-36.2305L16.6504-64.3555Q16.2598-64.6973 15.7715-64.6973Q15.332-64.6973 14.9902-64.3799Q14.6484-64.0625 14.6484-63.5742Q14.6484-63.1348 14.9414-62.793L45.3125-35.2539L14.9414-7.71484Q14.6484-7.37305 14.6484-6.93359Q14.6484-6.44531 14.9902-6.12793Q15.332-5.81055 15.7715-5.81055Q16.2598-5.81055 16.6504-6.15234L47.6074-34.2773Q47.8516-34.4727 47.9736-34.6924Q48.0957-34.9121 48.0957-35.2539Z"/>
  </g>
 </g>
</svg>
