<svg width="25" height="25" viewBox="0 0 25 25" fill="none" xmlns="http://www.w3.org/2000/svg">
<path d="M0.229728 24.7911C0.36897 24.9304 0.543016 25 0.751865 25C0.960742 25 1.14176 24.9304 1.29492 24.7911L12.4895 13.5547L23.726 24.7911C23.8652 24.9304 24.0393 25 24.2481 25C24.4569 25 24.638 24.9304 24.7911 24.7911C24.9304 24.638 25 24.4605 25 24.2586C25 24.0567 24.9304 23.8791 24.7911 23.726L13.5547 12.5105L24.7911 1.29488C24.9304 1.14173 25 0.960722 25 0.751873C25 0.543024 24.9304 0.368978 24.7911 0.229736C24.638 0.0765781 24.4569 0 24.2481 0C24.0393 0 23.8652 0.0765781 23.726 0.229736L12.4895 11.4453L1.29492 0.229736C1.14176 0.0765781 0.960742 0 0.751865 0C0.543016 0 0.36897 0.0765781 0.229728 0.229736C0.076576 0.368978 0 0.543024 0 0.751873C0 0.960722 0.076576 1.14173 0.229728 1.29488L11.4453 12.5105L0.229728 23.726C0.076576 23.8791 0 24.0567 0 24.2586C0 24.4605 0.076576 24.638 0.229728 24.7911Z" fill="black"/>
</svg>
