<svg width="20" height="25" viewBox="0 0 20 25" fill="none" xmlns="http://www.w3.org/2000/svg">
<path d="M3.14685 25H16.3316C17.3611 25 18.1429 24.7329 18.6771 24.1987C19.2113 23.6646 19.4784 22.8876 19.4784 21.8677V9.92136C19.4784 8.90154 19.2113 8.12454 18.6771 7.59036C18.1429 7.05616 17.3611 6.78906 16.3316 6.78906H13.0099V7.76517H16.3024C17.0017 7.76517 17.5408 7.95214 17.9196 8.32608C18.2983 8.70001 18.4877 9.2512 18.4877 9.97963V21.8095C18.4877 22.5379 18.2983 23.0867 17.9196 23.4557C17.5408 23.8248 17.0017 24.0093 16.3024 24.0093H3.176C2.45727 24.0093 1.91337 23.8248 1.54429 23.4557C1.17521 23.0867 0.990665 22.5379 0.990665 21.8095V9.97963C0.990665 9.2512 1.17521 8.70001 1.54429 8.32608C1.91337 7.95214 2.45727 7.76517 3.176 7.76517H6.49767V6.78906H3.14685C2.10762 6.78906 1.32334 7.05374 0.794011 7.58308C0.26467 8.11241 0 8.89183 0 9.92136V21.8677C0 22.8973 0.26467 23.6767 0.794011 24.206C1.32334 24.7354 2.10762 25 3.14685 25Z" fill="black"/>
<path d="M9.73182 16.3607C9.8678 16.3607 9.98435 16.3146 10.0815 16.2223C10.1786 16.13 10.2272 16.0159 10.2272 15.8799V3.03031L10.198 1.41316L11.4655 2.70978L13.6071 4.89511C13.7042 5.00195 13.8208 5.05537 13.9568 5.05537C14.0733 5.05537 14.1777 5.01166 14.27 4.92423C14.3623 4.83683 14.4084 4.73 14.4084 4.60373C14.4084 4.48719 14.355 4.38035 14.2481 4.28322L10.0815 0.160254C10.0329 0.101993 9.97949 0.0607181 9.92123 0.036431C9.86294 0.0121438 9.79981 0 9.73182 0C9.67354 0 9.6177 0.0121438 9.56429 0.036431C9.51086 0.0607181 9.45502 0.101993 9.39675 0.160254L5.21552 4.28322C5.11839 4.38035 5.06982 4.48719 5.06982 4.60373C5.06982 4.73 5.11111 4.83683 5.19368 4.92423C5.27623 5.01166 5.38063 5.05537 5.5069 5.05537C5.64286 5.05537 5.7594 5.00195 5.85653 4.89511L8.01272 2.70978L9.28018 1.41316L9.25106 3.03031V15.8799C9.25106 16.0159 9.29963 16.13 9.39675 16.2223C9.49386 16.3146 9.60555 16.3607 9.73182 16.3607Z" fill="black"/>
</svg>
