<svg width="15" height="25" viewBox="0 0 15 25" fill="none" xmlns="http://www.w3.org/2000/svg">
<path d="M0 12.5C0 12.6202 0.0233709 12.727 0.0701127 12.8205C0.116855 12.914 0.18029 13.0008 0.260418 13.0809L12.9006 24.7796C13.0475 24.9265 13.2278 25 13.4415 25C13.6418 25 13.8154 24.9332 13.9623 24.7997C14.1092 24.6661 14.1827 24.4925 14.1827 24.2788C14.1827 24.0785 14.1092 23.9049 13.9623 23.758L1.80288 12.5L13.9623 1.24201C14.1092 1.09511 14.1827 0.921504 14.1827 0.721189C14.1827 0.507501 14.1092 0.333882 13.9623 0.20033C13.8154 0.0667777 13.6418 0 13.4415 0C13.2278 0 13.0475 0.0734636 12.9006 0.22039L0.260418 11.9191C0.0868061 12.0793 0 12.273 0 12.5Z" fill="black"/>
</svg>
