<svg width="21" height="25" viewBox="0 0 21 25" fill="none" xmlns="http://www.w3.org/2000/svg">
<path d="M0 14.9162C0 16.3226 0.259325 17.6366 0.777975 18.8585C1.29663 20.0803 2.01476 21.15 2.93235 22.0676C3.84997 22.9852 4.9172 23.7034 6.13405 24.222C7.35087 24.7407 8.66745 25 10.0838 25C11.4901 25 12.8017 24.7407 14.0185 24.222C15.2354 23.7034 16.3026 22.9852 17.2202 22.0676C18.1378 21.15 18.8559 20.0803 19.3746 18.8585C19.8932 17.6366 20.1526 16.3226 20.1526 14.9162C20.1526 14.7566 20.1027 14.6295 20.0029 14.5347C19.9032 14.44 19.7785 14.3926 19.6289 14.3926C19.4793 14.3926 19.3596 14.44 19.2699 14.5347C19.1801 14.6295 19.1352 14.7566 19.1352 14.9162C19.1352 16.1829 18.9033 17.3648 18.4395 18.462C17.9757 19.5591 17.3299 20.5216 16.5021 21.3495C15.6742 22.1773 14.7142 22.8232 13.622 23.287C12.5299 23.7507 11.3505 23.9826 10.0838 23.9826C8.80708 23.9826 7.62017 23.7507 6.52303 23.287C5.42588 22.8232 4.46339 22.1773 3.63555 21.3495C2.80769 20.5216 2.16436 19.5591 1.70555 18.462C1.24674 17.3648 1.01734 16.1829 1.01734 14.9162C1.01734 13.6495 1.24674 12.4701 1.70555 11.3779C2.16436 10.2858 2.80769 9.32824 3.63555 8.50539C4.46339 7.68253 5.42588 7.0417 6.52303 6.58289C7.62017 6.12408 8.80708 5.89468 10.0838 5.89468C10.7021 5.89468 11.3106 5.92959 11.909 5.99941C12.5074 6.06923 13.0361 6.16897 13.4949 6.29864L8.90184 10.9515C8.84199 11.0014 8.7996 11.0587 8.77466 11.1236C8.74974 11.1884 8.73728 11.2557 8.73728 11.3256C8.73728 11.4652 8.78465 11.5824 8.87938 11.6772C8.97414 11.7719 9.09633 11.8193 9.24593 11.8193C9.39554 11.8193 9.51523 11.7694 9.60501 11.6697L14.7666 6.40337C14.9361 6.22382 15.0209 6.06423 15.0209 5.92461C15.0209 5.76502 14.9361 5.60044 14.7666 5.43087L9.61996 0.149616C9.5302 0.0498712 9.40055 0 9.23098 0C9.09134 0 8.97414 0.0473795 8.87938 0.14214C8.78465 0.23688 8.73728 0.354069 8.73728 0.493707C8.73728 0.573515 8.74974 0.643334 8.77466 0.703165C8.7996 0.763015 8.84199 0.822866 8.90184 0.882716L13.1957 5.25135C12.7967 5.15161 12.3254 5.06683 11.7818 4.99701C11.2383 4.92719 10.6722 4.89228 10.0838 4.89228C8.66745 4.89228 7.35087 5.14912 6.13405 5.66279C4.9172 6.17645 3.84997 6.88959 2.93235 7.80222C2.01476 8.71486 1.29663 9.77709 0.777975 10.9889C0.259325 12.2008 0 13.5099 0 14.9162Z" fill="black"/>
</svg>
