<svg width="24" height="25" viewBox="0 0 24 25" fill="none" xmlns="http://www.w3.org/2000/svg">
<path d="M0.170125 21.5343C-0.11342 22.6581 -0.0425297 23.5166 0.382797 24.11C0.808142 24.7033 1.57741 25 2.69061 25H20.8853C21.9881 25 22.7547 24.7033 23.1853 24.11C23.6159 23.5166 23.6894 22.6581 23.4058 21.5343L20.586 10.5703C20.355 9.7301 19.9769 9.08947 19.4518 8.64838C18.9267 8.2073 18.2756 7.98675 17.4985 7.98675H6.07752C5.28987 7.98675 4.6335 8.2073 4.1084 8.64838C3.5833 9.08947 3.21048 9.7301 2.98993 10.5703L0.170125 21.5343ZM1.22558 21.5501L4.01387 10.8223C4.32892 9.64609 5.04306 9.05798 6.15627 9.05798H17.4197C18.5329 9.05798 19.247 9.64609 19.5621 10.8223L22.3504 21.5501C22.5499 22.3377 22.5263 22.9311 22.2795 23.3302C22.0327 23.7293 21.5522 23.9288 20.8381 23.9288H2.72213C2.01849 23.9288 1.54064 23.7293 1.28859 23.3302C1.03656 22.9311 1.01556 22.3377 1.22558 21.5501ZM11.2602 8.6169H12.3157V6.00189H11.2602V8.6169ZM11.7801 6.56899C12.3787 6.56899 12.9275 6.41934 13.4263 6.12003C13.9251 5.82072 14.3242 5.42428 14.6235 4.93069C14.9228 4.4371 15.0725 3.89625 15.0725 3.30813C15.0725 2.69902 14.9228 2.14503 14.6235 1.64618C14.3242 1.14734 13.9251 0.748267 13.4263 0.44896C12.9275 0.149654 12.3787 0 11.7801 0C11.1815 0 10.6354 0.152277 10.1418 0.456832C9.64819 0.761387 9.25174 1.16046 8.95243 1.65405C8.65313 2.14766 8.50347 2.69902 8.50347 3.30813C8.50347 3.90674 8.65313 4.45284 8.95243 4.94643C9.25174 5.44002 9.64819 5.83384 10.1418 6.1279C10.6354 6.42196 11.1815 6.56899 11.7801 6.56899ZM11.7801 5.59232C11.15 5.59232 10.6118 5.36915 10.1654 4.92282C9.71909 4.47648 9.49592 3.93825 9.49592 3.30813C9.49592 2.66751 9.71909 2.12141 10.1654 1.66983C10.6118 1.21824 11.15 0.992449 11.7801 0.992449C12.4102 0.992449 12.9537 1.21824 13.4105 1.66983C13.8674 2.12141 14.0958 2.66751 14.0958 3.30813C14.0958 3.92775 13.87 4.46336 13.4184 4.91494C12.9668 5.36653 12.4207 5.59232 11.7801 5.59232Z" fill="black"/>
</svg>
